<svg width="136" height="23" viewBox="0 0 136 23" fill="none" xmlns="http://www.w3.org/2000/svg">
    <path d="M39.979 3.66286C39.8114 3.66286 39.7276 3.72432 39.7276 3.84724C39.3589 3.84724 39.0683 3.84724 38.856 3.84724C38.6549 3.84724 38.5319 3.85841 38.4872 3.88076V3.84724C38.3755 3.86959 38.2414 3.88635 38.085 3.89752C37.9285 3.9087 37.733 3.90311 37.4983 3.88076C37.4759 3.85841 37.4257 3.84724 37.3474 3.84724C37.2804 3.83606 37.2469 3.8193 37.2469 3.79695C37.0569 3.7746 36.8949 3.76901 36.7608 3.78019C36.6378 3.78019 36.554 3.81371 36.5093 3.88076C36.2747 3.88076 36.0847 3.88076 35.9394 3.88076C35.7942 3.88076 35.6992 3.86959 35.6545 3.84724C35.5092 3.98133 35.3807 3.99251 35.269 3.88076C35.1572 3.85841 35.0175 3.84724 34.8499 3.84724C34.6935 3.83606 34.5035 3.8193 34.28 3.79695C34.2577 3.79695 34.2018 3.80813 34.1124 3.83047C34.0342 3.84165 33.9168 3.85841 33.7604 3.88076C33.4922 3.93663 33.2966 3.93663 33.1737 3.88076V3.84724C33.062 3.84724 32.9111 3.85841 32.7211 3.88076C32.5312 3.89194 32.3077 3.9087 32.0507 3.93105C31.9836 3.97574 31.9445 4.00927 31.9333 4.03162C31.9333 4.05397 31.9445 4.07632 31.9669 4.09866H31.883V5.69105H31.8328C31.7992 5.78044 31.7992 5.86425 31.8328 5.94247H31.883V7.92038H31.8328C31.7992 8.03213 31.7992 8.12711 31.8328 8.20533H31.883V9.496C31.9389 9.51835 32.0116 9.5407 32.101 9.56305C32.1903 9.5854 32.2909 9.60774 32.4027 9.63009L33.5928 9.66362C33.5704 9.69714 33.6151 9.7139 33.7269 9.7139C33.8051 9.7139 33.833 9.69714 33.8107 9.66362H37.8335V9.7139C38.1017 9.7586 38.3587 9.7586 38.6046 9.7139V9.66362C38.6269 9.68597 38.666 9.70832 38.7219 9.73067C38.789 9.74184 38.8672 9.73625 38.9566 9.7139V9.88152H39.0404V11.2057C38.9733 11.2057 38.9175 11.2504 38.8728 11.3398C38.8392 11.4292 38.8113 11.4739 38.789 11.4739C38.4649 11.4739 38.2023 11.4739 38.0011 11.4739C37.8112 11.4739 37.6883 11.4851 37.6324 11.5074V11.5577H36.7272V11.5074L35.8724 11.4739L35.8221 11.4236C35.6992 11.3901 35.5427 11.4348 35.3528 11.5577H34.6655V11.5074C34.6432 11.4851 34.6152 11.4739 34.5817 11.4739C34.5482 11.4739 34.5203 11.4739 34.4979 11.4739C34.3862 11.4739 34.3135 11.4851 34.28 11.5074V11.5577H33.3749V11.5074C33.319 11.4851 33.2575 11.4739 33.1905 11.4739C33.1234 11.4739 33.0564 11.4739 32.9893 11.4739C32.9335 11.4739 32.8776 11.4739 32.8217 11.4739C32.777 11.4739 32.7211 11.4851 32.6541 11.5074V11.5577C32.587 11.5577 32.4977 11.5745 32.3859 11.608C32.2853 11.6303 32.1736 11.6695 32.0507 11.7253C32.0507 11.7589 32.0339 11.7756 32.0004 11.7756L31.9669 12.4964H31.883V14.8598H31.9669V15.1112C31.8551 15.1112 31.8272 15.1559 31.883 15.2453C31.883 15.2677 31.911 15.2789 31.9669 15.2789V18.8491C31.8551 18.8491 31.7992 18.905 31.7992 19.0168H31.531V19.067H30.4248C30.3018 18.9777 30.218 18.933 30.1733 18.933V18.7989H30.0728C30.0728 18.6871 30.0616 18.6145 30.0392 18.581H29.989V18.1619H30.0392V17.1227H29.989V16.8712C30.0113 16.8936 30.0281 16.8992 30.0392 16.888C30.0616 16.8768 30.0728 16.8601 30.0728 16.8377C30.0728 16.7818 30.0448 16.7818 29.989 16.8377V16.6533C30.0448 16.7092 30.0728 16.6813 30.0728 16.5695C30.0728 16.4243 30.0448 16.3963 29.989 16.4857V16.0164H30.0392C30.0728 15.9382 30.0728 15.8376 30.0392 15.7147H29.989V15.4968H30.0392C30.0728 15.4185 30.0728 15.3347 30.0392 15.2453H29.989V14.424C30.0337 14.4463 30.0616 14.4575 30.0728 14.4575C30.0951 14.4575 30.0951 14.4463 30.0728 14.424C30.0728 14.3346 30.0448 14.3067 29.989 14.3402V13.3512C29.8996 13.3512 29.8716 13.3233 29.9051 13.2674H29.989C30.0337 13.1557 30.0337 13.0439 29.989 12.9322H29.9051V12.7646H29.989C30.0337 12.664 30.0337 12.5746 29.989 12.4964H29.9051V12.379H29.989C30.0337 12.1109 30.0337 11.9376 29.989 11.8594C29.9666 11.8259 29.9387 11.8091 29.9051 11.8091H29.989V11.0884H30.0392C30.0728 11.0102 30.0728 10.9096 30.0392 10.7867H29.989C29.989 10.4961 29.961 10.3229 29.9051 10.267V8.94286C29.9498 8.94286 29.9778 8.93727 29.989 8.92609C30.0113 8.90374 30.0113 8.8814 29.989 8.85905C29.989 8.7473 29.961 8.71936 29.9051 8.77524V8.42324H29.989L29.9051 8.33943V8.20533H29.989C30.0337 8.10476 30.0337 7.99301 29.989 7.87009H29.9051V7.56838H29.989C30.056 7.52368 30.056 7.45105 29.989 7.35047H29.9051V7.23314C29.9387 7.23314 29.9666 7.21638 29.989 7.18286C29.989 7.05994 29.961 7.04317 29.9051 7.13257V6.88114H29.989C30.0337 6.75822 30.0337 6.62971 29.989 6.49562H29.9051V6.36152C30.0169 6.36152 30.0448 6.33359 29.989 6.27771C29.989 6.18832 29.961 6.16038 29.9051 6.1939V4.01486C29.9275 4.01486 29.9387 4.00927 29.9387 3.99809C29.9498 3.97574 29.9666 3.9534 29.989 3.93105C29.989 3.8193 29.961 3.79136 29.9051 3.84724V2.25486C29.9722 2.23251 30.0057 2.21016 30.0057 2.18781C30.0169 2.16546 30.0113 2.14311 29.989 2.12076H30.8438C30.8103 2.21016 30.8438 2.25486 30.9444 2.25486C31.0226 2.21016 31.0505 2.16546 31.0282 2.12076C31.0729 2.12076 31.1455 2.11517 31.2461 2.104C31.3467 2.09282 31.4528 2.08724 31.5646 2.08724C31.6875 2.07606 31.8048 2.06489 31.9166 2.05371C32.0283 2.04254 32.1289 2.03695 32.2183 2.03695C32.2518 2.07047 32.2686 2.11517 32.2686 2.17105C32.358 2.1487 32.4027 2.12076 32.4027 2.08724C32.4027 2.05371 32.4585 2.03695 32.5703 2.03695C32.5703 2.09282 32.6262 2.12076 32.7379 2.12076C32.8943 2.09841 33.0676 2.08165 33.2575 2.07048C33.4587 2.04813 33.6877 2.03695 33.9448 2.03695C34.09 2.08165 34.2241 2.11517 34.347 2.13752C34.4811 2.1487 34.6041 2.14311 34.7158 2.12076C34.7717 2.09841 34.8611 2.08165 34.984 2.07048C35.1069 2.04813 35.2466 2.03695 35.403 2.03695C35.403 2.07047 35.4142 2.09841 35.4366 2.12076C35.5483 2.12076 35.5763 2.09282 35.5204 2.03695H36.459V2.12076C36.5261 2.12076 36.5596 2.09282 36.5596 2.03695H37.4145V2.12076C37.5039 2.12076 37.5318 2.09282 37.4983 2.03695C37.6883 2.09282 37.9453 2.12076 38.2693 2.12076C38.2693 2.17663 38.2805 2.22133 38.3029 2.25486C38.3811 2.21016 38.3978 2.16546 38.3531 2.12076C38.666 2.12076 38.8951 2.09282 39.0404 2.03695C39.0404 2.03695 39.0516 2.04813 39.0739 2.07048C39.1074 2.08165 39.1521 2.09841 39.208 2.12076V2.20457C39.3421 2.26044 39.4706 2.26044 39.5935 2.20457V2.12076H39.8952V2.33867H39.979V3.66286ZM51.9137 18.933C51.8578 18.933 51.8298 18.9441 51.8298 18.9665C51.5281 19.067 51.1314 19.1006 50.6398 19.067V18.9665C50.5727 19.0335 50.528 19.067 50.5057 19.067C50.3939 19.067 50.2654 19.0223 50.1201 18.933C50.1201 18.8436 50.1145 18.7821 50.1034 18.7486C50.0922 18.7039 50.0419 18.6927 49.9525 18.715V18.581H50.0363C50.0698 18.5027 50.0698 18.4077 50.0363 18.296H49.9525V17.5585H49.8687C49.8687 17.5026 49.8519 17.4579 49.8184 17.4244C49.6396 17.3015 49.3994 17.3015 49.0977 17.4244C49.0977 17.335 49.0809 17.2959 49.0474 17.307C49.0138 17.307 48.9859 17.2791 48.9636 17.2232H48.9133V15.9326H48.8295V15.7985C48.6283 15.7985 48.4775 15.7817 48.3769 15.7482C48.2763 15.7035 48.1981 15.6588 48.1422 15.6141C48.0975 15.5582 48.0584 15.5135 48.0249 15.48C48.0025 15.4353 47.9578 15.413 47.8908 15.413V15.2789H47.9243C47.9802 15.2453 47.9802 15.1783 47.9243 15.0777H47.8908C47.8908 14.8989 47.8852 14.7481 47.874 14.6251C47.874 14.5022 47.8629 14.4072 47.8405 14.3402H47.807V14.1223C47.7846 14.0999 47.7455 14.0832 47.6897 14.072C47.645 14.0608 47.5667 14.0664 47.455 14.0888C47.455 14.0329 47.4438 13.9882 47.4215 13.9547C47.3097 13.9994 47.293 14.0441 47.3712 14.0888H47.0359C46.8348 13.8876 46.7789 13.787 46.8683 13.787C46.9242 13.787 46.9354 13.7703 46.9018 13.7368C46.9018 13.6809 46.9018 13.6474 46.9018 13.6362C46.9018 13.625 46.8907 13.6306 46.8683 13.653C46.8683 13.463 46.8627 13.2954 46.8516 13.1501C46.8516 13.0048 46.8404 12.8875 46.818 12.7981H46.7342V12.6305C46.6895 12.5076 46.6448 12.4629 46.6001 12.4964H46.2649C46.2649 12.4964 46.2593 12.4908 46.2481 12.4796C46.2481 12.4573 46.237 12.4349 46.2146 12.4126C46.0917 12.4126 45.9799 12.3679 45.8794 12.2785V12.0773H45.7956V11.8594C45.6726 11.6583 45.6112 11.6136 45.6112 11.7253C45.343 11.6359 44.9575 11.608 44.4546 11.6415C44.4099 11.6415 44.354 11.6527 44.287 11.675C44.2311 11.6862 44.1585 11.703 44.0691 11.7253H44.0356C43.9909 11.6806 43.9462 11.6695 43.9015 11.6918C43.8679 11.7142 43.84 11.77 43.8177 11.8594C43.7841 11.8818 43.7674 11.9935 43.7674 12.1947H43.7338C43.678 12.4964 43.678 12.7981 43.7338 13.0998H43.7674V13.7032H43.7338C43.678 13.7926 43.678 13.8764 43.7338 13.9547H43.7674V14.9939H43.7338C43.678 15.0833 43.678 15.1671 43.7338 15.2453H43.7674V16.184C43.745 16.184 43.7338 16.2008 43.7338 16.2343C43.7003 16.2566 43.7115 16.2678 43.7674 16.2678V17.2232C43.745 17.1897 43.7338 17.1897 43.7338 17.2232C43.7338 17.2791 43.745 17.3182 43.7674 17.3406V17.7764C43.745 17.7987 43.7283 17.8155 43.7171 17.8267C43.7059 17.8267 43.7115 17.8378 43.7338 17.8602C43.7338 17.9161 43.745 17.944 43.7674 17.944V18.8827C43.745 18.8827 43.7338 18.9106 43.7338 18.9665C43.6221 18.9888 43.4992 19.0112 43.3651 19.0335C43.231 19.067 43.069 19.1062 42.879 19.1509V19.1006C42.7449 19.067 42.6164 19.067 42.4935 19.1006C42.4935 19.1341 42.4767 19.1509 42.4432 19.1509V19.1006C42.3761 19.0782 42.2979 19.0559 42.2085 19.0335C42.1303 19.0112 42.0353 18.9888 41.9236 18.9665C41.9012 18.9441 41.8844 18.9274 41.8733 18.9162C41.8733 18.905 41.8621 18.9106 41.8398 18.933C41.8398 18.7542 41.8342 18.6145 41.823 18.5139C41.8118 18.4133 41.8006 18.3463 41.7895 18.3128C41.7783 18.2681 41.7671 18.2401 41.7559 18.229C41.7448 18.2178 41.7448 18.2066 41.7559 18.1954H41.8062C41.8398 17.7261 41.8398 17.2568 41.8062 16.7874H41.7559V16.6533H41.8062C41.8398 16.5304 41.8398 16.4019 41.8062 16.2678H41.7559V14.3905C41.8118 14.424 41.8398 14.3961 41.8398 14.3067C41.8398 14.2396 41.8286 14.1949 41.8062 14.1726C41.7951 14.1502 41.7783 14.167 41.7559 14.2229V13.787H41.8062C41.8398 13.6753 41.8398 13.558 41.8062 13.435H41.7559V13.3177H41.8062C41.8398 13.2395 41.8398 13.1501 41.8062 13.0495H41.7559V12.9322C41.7895 12.9322 41.8174 12.9154 41.8398 12.8819C41.8398 12.8596 41.8118 12.8484 41.7559 12.8484V12.7143C41.8118 12.7702 41.8398 12.7702 41.8398 12.7143C41.7839 12.7143 41.7559 12.6417 41.7559 12.4964H41.8062C41.8398 12.4182 41.8398 12.3176 41.8062 12.1947H41.7559V10.3173C41.7895 10.3173 41.8174 10.3006 41.8398 10.267C41.8398 10.2112 41.8118 10.1832 41.7559 10.1832V10.0156C41.7559 10.0156 41.7615 10.0156 41.7727 10.0156C41.7951 10.0044 41.8174 9.98768 41.8398 9.96533C41.8174 9.90946 41.8006 9.88152 41.7895 9.88152C41.7895 9.87035 41.7783 9.88711 41.7559 9.93181V4.18247C41.7895 4.18247 41.8174 4.16571 41.8398 4.13219C41.8398 3.98692 41.8118 3.95898 41.7559 4.04838V3.10971H41.6721V2.64038C41.728 2.6739 41.7559 2.6292 41.7559 2.50628C41.9906 2.41689 42.1079 2.38895 42.1079 2.42247H43.1807V2.47276C43.4601 2.50628 43.7283 2.50628 43.9853 2.47276V2.42247H44.2535V2.47276C44.3652 2.50628 44.449 2.50628 44.5049 2.47276V2.42247H45.5274C45.4938 2.47835 45.5218 2.50628 45.6112 2.50628C45.6782 2.48393 45.7229 2.47276 45.7453 2.47276C45.7676 2.46159 45.7676 2.44482 45.7453 2.42247H48.0249V2.47276C48.0808 2.49511 48.2931 2.50628 48.6618 2.50628C48.606 2.59568 48.606 2.64038 48.6618 2.64038H48.7121C48.7121 2.91974 48.7401 3.07619 48.7959 3.10971C48.8965 3.13206 49.0138 3.15441 49.1479 3.17676C49.2932 3.19911 49.4608 3.22146 49.6508 3.24381C49.6173 3.26616 49.6564 3.27733 49.7681 3.27733C49.7458 3.38908 49.7402 3.50082 49.7514 3.61257C49.7625 3.71314 49.8017 3.8193 49.8687 3.93105C49.8911 3.9534 50.0196 3.96457 50.2542 3.96457V4.04838L50.8074 4.09866V4.7859C50.8632 4.80825 51.0365 4.81943 51.327 4.81943C51.327 4.85295 51.3382 4.88089 51.3605 4.90324C51.4276 4.90324 51.4443 4.8753 51.4108 4.81943H51.746C51.7125 4.8753 51.7405 4.90324 51.8298 4.90324V6.27771C51.8857 6.24419 51.9137 6.27213 51.9137 6.36152H51.8298C51.7963 6.46209 51.7963 6.55149 51.8298 6.62971H51.9137V6.84762H51.8298C51.7963 7.01524 51.7963 7.18286 51.8298 7.35047H51.9137V8.12152C51.8913 8.09917 51.869 8.09917 51.8466 8.12152C51.8354 8.1327 51.8298 8.14946 51.8298 8.17181C51.8298 8.21651 51.8354 8.23886 51.8466 8.23886C51.869 8.23886 51.8913 8.22768 51.9137 8.20533V8.89257C51.9137 8.93727 51.8578 8.98197 51.746 9.02667C51.5225 9.02667 51.2935 9.0993 51.0588 9.24457C50.9806 9.27809 50.9415 9.3619 50.9415 9.496L50.8912 9.848C50.7794 9.90387 50.6844 9.9374 50.6062 9.94857C50.5392 9.95975 50.5057 9.99327 50.5057 10.0491H50.2039C50.1369 10.0268 50.081 10.0156 50.0363 10.0156C50.0028 10.0156 49.9749 10.0156 49.9525 10.0156C49.8855 10.038 49.8408 10.0659 49.8184 10.0994C49.7961 10.133 49.7961 10.1609 49.8184 10.1832H49.7681C49.8128 10.3062 49.7737 10.4794 49.6508 10.7029C49.5838 10.6805 49.5111 10.6973 49.4329 10.7531C49.3547 10.7978 49.282 10.8202 49.215 10.8202V10.9208C49.1926 10.9208 49.1591 10.9319 49.1144 10.9543C49.0697 10.9655 49.0027 10.9822 48.9133 11.0046V11.3063H48.8295C48.8071 11.3063 48.7959 11.3733 48.7959 11.5074C48.6171 11.5074 48.5278 11.5521 48.5278 11.6415H48.1422C48.1422 11.6415 48.1422 11.6359 48.1422 11.6248C48.1422 11.6024 48.1311 11.5801 48.1087 11.5577C48.1087 11.6136 48.064 11.6415 47.9746 11.6415C47.9187 11.8203 47.9187 11.9935 47.9746 12.1611C48.064 12.1611 48.1758 12.1611 48.3098 12.1611C48.4439 12.1611 48.606 12.1723 48.7959 12.1947C48.7959 12.3846 48.7959 12.5578 48.7959 12.7143C48.7959 12.8596 48.8071 12.9881 48.8295 13.0998H48.9133C48.8351 13.2227 48.8071 13.2954 48.8295 13.3177H48.9133H48.8295C48.7959 13.4071 48.7959 13.4909 48.8295 13.5691H48.9133V13.7032C48.8574 13.7032 48.8183 13.7144 48.7959 13.7368C48.7959 13.7591 48.8406 13.7926 48.93 13.8373C49.0194 13.8709 49.0753 13.8988 49.0977 13.9211C49.1535 13.9435 49.3211 13.9267 49.6005 13.8709C49.6229 13.8709 49.6564 13.8932 49.7011 13.9379C49.757 13.9826 49.7961 14.005 49.8184 14.005C49.7961 14.0943 49.8128 14.2173 49.8687 14.3737C49.9246 14.519 49.9525 14.6251 49.9525 14.6922H49.8687C49.8128 14.8375 49.8128 14.9771 49.8687 15.1112H49.9525H49.8687C49.824 15.2453 49.824 15.3347 49.8687 15.3794C49.8911 15.4018 49.9581 15.413 50.0698 15.413V15.4968C50.2486 15.4632 50.4945 15.4912 50.8074 15.5806V16.2343H50.8912V16.3516H50.8074V17.1227C50.9303 17.145 51.0867 17.1674 51.2767 17.1897C51.4667 17.2121 51.679 17.2344 51.9137 17.2568V18.933ZM49.9525 7.26667C49.9525 7.22197 49.9413 7.19962 49.919 7.19962C49.9078 7.19962 49.8911 7.21079 49.8687 7.23314C49.8464 7.00965 49.8296 6.74146 49.8184 6.42857C49.8184 6.11568 49.8184 5.75251 49.8184 5.33905H49.7681C49.6899 5.33905 49.6508 5.26641 49.6508 5.12114H49.215C49.1703 5.10997 49.12 5.09879 49.0641 5.08762C49.0194 5.06527 48.9747 5.03174 48.93 4.98705C48.8965 4.94235 48.863 4.8753 48.8295 4.7859C48.8071 4.68533 48.7959 4.55682 48.7959 4.40038C48.7959 4.4339 48.7512 4.40597 48.6618 4.31657H46.8683C46.8348 4.33892 46.7901 4.35009 46.7342 4.35009V4.31657C46.5778 4.31657 46.4381 4.31657 46.3152 4.31657C46.2034 4.3054 46.114 4.28863 46.047 4.26628V4.18247C45.9352 4.20482 45.7844 4.23276 45.5944 4.26628C45.4044 4.29981 45.181 4.32774 44.9239 4.35009C44.8122 4.35009 44.7563 4.33892 44.7563 4.31657C44.8681 4.33892 44.8513 4.35009 44.706 4.35009C44.5608 4.35009 44.2926 4.35009 43.9015 4.35009C43.8791 4.37244 43.8512 4.39479 43.8177 4.41714C43.7841 4.43949 43.7562 4.47301 43.7338 4.51771V5.25524H43.65C43.6165 5.28876 43.6165 5.30552 43.65 5.30552C43.6724 5.32787 43.6891 5.35022 43.7003 5.37257C43.7227 5.38374 43.7338 5.40051 43.7338 5.42286C43.7338 5.4452 43.7227 5.46755 43.7003 5.4899C43.6891 5.50108 43.6724 5.49549 43.65 5.47314V5.64076H43.7338V7.65219H43.65V7.736H43.7338V9.54629H43.7674C43.8009 9.56863 43.8177 9.62451 43.8177 9.7139H44.5049V9.76419H44.8401C44.8401 9.73067 44.8569 9.7139 44.8904 9.7139C44.9463 9.7139 44.9575 9.73067 44.9239 9.76419H47.6729C47.6729 9.73067 47.7176 9.7139 47.807 9.7139V9.76419H48.1087C48.0752 9.73067 48.1143 9.7139 48.226 9.7139C48.3154 9.7139 48.3434 9.73067 48.3098 9.76419H48.7121C48.7121 9.67479 48.7289 9.56863 48.7624 9.44571C48.8071 9.32279 48.8574 9.18311 48.9133 9.02667C48.9803 9.00432 49.0865 8.97638 49.2318 8.94286C49.3882 8.89816 49.5838 8.85346 49.8184 8.80876L49.8687 7.26667H49.9525ZM63.7645 17.3406C63.6527 17.307 63.5968 17.3517 63.5968 17.4747C63.5521 17.4523 63.4739 17.4579 63.3622 17.4914C63.2504 17.525 63.0996 17.5752 62.9096 17.6423C62.9096 17.6758 62.8817 17.6926 62.8258 17.6926V18.1116C62.7587 18.1563 62.7085 18.201 62.6749 18.2457C62.6414 18.2792 62.6358 18.3072 62.6582 18.3295C62.6023 18.3854 62.5017 18.4133 62.3565 18.4133C62.3565 18.391 62.3397 18.363 62.3062 18.3295C62.2503 18.3295 62.1832 18.3407 62.105 18.363C62.038 18.3854 61.9486 18.4189 61.8368 18.4636L61.8033 18.8491H61.7195V19.067C61.5407 19.067 61.4513 19.1062 61.4513 19.1844H60.1271V19.2682H59.6578V19.1844C59.3114 19.162 59.0432 19.1453 58.8532 19.1341C58.6632 19.1229 58.5571 19.1285 58.5347 19.1509C58.4789 19.1509 58.3951 19.1509 58.2833 19.1509C58.1827 19.1509 58.0542 19.162 57.8978 19.1844C57.8978 19.2403 57.881 19.2682 57.8475 19.2682V19.1844C57.7022 19.1397 57.5625 19.1397 57.4285 19.1844C57.4061 19.2067 57.3893 19.2235 57.3782 19.2347C57.3782 19.257 57.367 19.2682 57.3446 19.2682C57.3446 19.2458 57.3279 19.2179 57.2944 19.1844C57.2273 19.1844 57.1882 19.19 57.177 19.2011C57.177 19.2235 57.1882 19.2458 57.2105 19.2682H56.7412V19.1844H56.3054C56.2831 19.162 56.2719 19.1341 56.2719 19.1006C56.1154 19.1006 56.0205 19.1062 55.9869 19.1173C55.9646 19.1397 55.9869 19.162 56.054 19.1844C56.0205 19.162 56.0037 19.1341 56.0037 19.1006C55.9478 19.0782 55.9031 19.0615 55.8696 19.0503C55.8472 19.0391 55.8249 19.0447 55.8025 19.067C55.8025 18.9106 55.7579 18.8771 55.6685 18.9665C55.6685 18.6871 55.6517 18.5307 55.6182 18.4971C55.4952 18.4413 55.3779 18.3966 55.2662 18.363C55.1544 18.3183 55.0427 18.3072 54.9309 18.3295C54.8415 18.1954 54.7745 18.1507 54.7298 18.1954V17.9943H54.646V17.6926C54.4672 17.5138 54.3778 17.4691 54.3778 17.5585H53.9587V17.4747C53.8135 17.3853 53.7241 17.3573 53.6905 17.3909C53.6682 17.3238 53.6459 17.2456 53.6235 17.1562C53.6123 17.0668 53.6067 16.9439 53.6067 16.7874H53.657C53.6905 16.4969 53.6905 16.2231 53.657 15.9661H53.6067V15.8488H53.657L53.6905 15.3291C53.7799 15.3291 53.8079 15.3124 53.7744 15.2789C53.7744 15.1448 53.7464 15.1057 53.6905 15.1615C53.7129 15.0945 53.7129 15.0274 53.6905 14.9604C53.6794 14.8933 53.6514 14.8151 53.6067 14.7257V13.7032C53.6514 13.7032 53.6794 13.6977 53.6905 13.6865C53.7129 13.6641 53.7129 13.6418 53.6905 13.6194C53.6682 13.5524 53.6514 13.5189 53.6403 13.5189C53.6403 13.5077 53.6291 13.5244 53.6067 13.5691V13.2674C53.7185 13.2674 53.7464 13.2395 53.6905 13.1836C53.6682 13.1166 53.6514 13.083 53.6403 13.083C53.6403 13.0719 53.6291 13.0942 53.6067 13.1501V12.8484C53.6514 12.8484 53.6794 12.8428 53.6905 12.8316C53.7129 12.8093 53.7129 12.7869 53.6905 12.7646C53.6682 12.6975 53.6514 12.664 53.6403 12.664C53.6403 12.6528 53.6291 12.6696 53.6067 12.7143V11.9935C53.6403 12.0159 53.6682 12.0159 53.6905 11.9935C53.6682 11.9265 53.6514 11.8818 53.6403 11.8594C53.6403 11.8371 53.6291 11.8371 53.6067 11.8594V11.3398H53.657C53.6905 11.2169 53.6905 11.1163 53.657 11.0381H53.6067V10.4347C53.6626 10.4347 53.6905 10.4235 53.6905 10.4011C53.7464 10.3453 53.7185 10.3173 53.6067 10.3173V6.328L53.5229 6.24419H53.6067C53.6514 5.77486 53.6514 5.29994 53.6067 4.81943H53.5229V4.70209H53.6067C53.6626 4.6127 53.6626 4.5233 53.6067 4.4339H53.5229V4.26628C53.5788 4.26628 53.6067 4.23835 53.6067 4.18247C53.6067 4.03721 53.5788 4.00927 53.5229 4.09866V3.66286H53.6067C53.6626 3.46171 53.6626 3.2494 53.6067 3.0259H53.5229V2.89181C53.5788 2.89181 53.6067 2.86387 53.6067 2.808C53.6067 2.69625 53.5788 2.66832 53.5229 2.72419C53.5453 2.70184 53.5565 2.6739 53.5565 2.64038C53.5676 2.60686 53.5844 2.57892 53.6067 2.55657H54.7298V2.47276H55.5008V3.84724H55.5846V3.96457H55.5008V4.26628H55.5846V4.40038H55.5008V5.33905C55.5232 5.37257 55.5511 5.38933 55.5846 5.38933H55.5008V6.24419H55.5846V6.46209H55.5008V6.66324H55.5846V8.088H55.5008V8.42324H55.5846V8.69143C55.5288 8.69143 55.5008 8.7026 55.5008 8.72495C55.5008 8.75848 55.5288 8.80317 55.5846 8.85905V11.1722C55.5288 11.1722 55.5008 11.2001 55.5008 11.256C55.5008 11.3119 55.5288 11.3398 55.5846 11.3398V11.5577C55.5288 11.5018 55.5008 11.5018 55.5008 11.5577C55.4673 11.5912 55.4952 11.608 55.5846 11.608V11.8594H55.5008V12.1109H55.5846C55.5846 12.4573 55.5846 12.759 55.5846 13.016C55.5846 13.2618 55.5958 13.463 55.6182 13.6194C55.6182 13.6418 55.6349 13.653 55.6685 13.653H55.6182C55.5846 14.3123 55.5846 14.9436 55.6182 15.547H55.6685V16.0667H55.5846C55.607 16.1225 55.6349 16.1784 55.6685 16.2343C55.7132 16.279 55.769 16.3349 55.8361 16.4019H56.1043C56.1601 16.4243 56.2216 16.4578 56.2886 16.5025C56.3557 16.536 56.4339 16.5751 56.5233 16.6198C56.4898 16.7427 56.5177 16.9271 56.6071 17.173C56.5512 17.173 56.5233 17.2009 56.5233 17.2568C56.568 17.2568 56.6127 17.3126 56.6574 17.4244C56.7468 17.4244 56.7747 17.3964 56.7412 17.3406C56.853 17.3406 56.92 17.3462 56.9424 17.3573C56.9759 17.3573 56.9815 17.3685 56.9591 17.3909V17.3406H57.1267C57.0709 17.3964 57.0988 17.4244 57.2105 17.4244C57.2664 17.4244 57.2944 17.3964 57.2944 17.3406C57.3391 17.307 57.3838 17.307 57.4285 17.3406C57.3726 17.3964 57.3726 17.4244 57.4285 17.4244C57.4508 17.4244 57.462 17.4188 57.462 17.4076C57.4732 17.3853 57.4899 17.3629 57.5123 17.3406C57.5123 17.3182 57.5234 17.3182 57.5458 17.3406C57.5458 17.3629 57.5793 17.3964 57.6464 17.4411C57.7246 17.4858 57.7916 17.497 57.8475 17.4747C57.8699 17.4747 57.8978 17.43 57.9313 17.3406C58.0431 17.3406 58.2051 17.3294 58.4174 17.307C58.6297 17.2735 58.8141 17.2568 58.9705 17.2568C58.9705 17.2568 58.9817 17.2679 59.0041 17.2903C59.0264 17.3015 59.0711 17.3182 59.1382 17.3406C59.1382 17.2847 59.2387 17.2568 59.4399 17.2568V17.3406C59.5069 17.3182 59.5907 17.3015 59.6913 17.2903C59.7919 17.2679 59.9204 17.2568 60.0768 17.2568V17.3406C60.1662 17.3182 60.2724 17.2959 60.3953 17.2735C60.5294 17.24 60.6803 17.1897 60.8479 17.1227C60.8479 17.0333 60.8199 17.0053 60.7641 17.0389V16.5695C60.7864 16.5919 60.8032 16.5863 60.8144 16.5528C60.8367 16.5192 60.8479 16.469 60.8479 16.4019C61.0714 16.4019 61.2558 16.3907 61.401 16.3684C61.5575 16.346 61.6916 16.3125 61.8033 16.2678L61.8368 12.7981C61.8368 12.7757 61.8536 12.7646 61.8871 12.7646C61.9095 12.7646 61.9095 12.7478 61.8871 12.7143C61.8871 12.6808 61.8704 12.6808 61.8368 12.7143C61.8368 12.4349 61.8368 12.1891 61.8368 11.9768C61.8368 11.7644 61.8257 11.5968 61.8033 11.4739H61.7195V11.3398H61.8033V10.1832H61.7195V9.79771H61.8033L61.8368 8.25562C61.9486 8.25562 61.9653 8.17181 61.8871 8.00419C61.8648 7.95949 61.848 7.93155 61.8368 7.92038C61.8368 7.89803 61.8368 7.89803 61.8368 7.92038C61.8704 7.94273 61.8871 7.92597 61.8871 7.87009C61.8871 7.84775 61.8759 7.8254 61.8536 7.80305C61.8424 7.76952 61.8257 7.71924 61.8033 7.65219H61.7195V7.18286C61.7977 7.22755 61.8368 7.19962 61.8368 7.09905C61.7586 6.8979 61.7195 6.8532 61.7195 6.96495H61.8033C61.8257 6.90908 61.8368 6.83086 61.8368 6.73028C61.8368 6.61854 61.8368 6.48444 61.8368 6.328H61.8871C61.9095 6.29447 61.9206 6.24978 61.9206 6.1939C61.9206 6.17155 61.9095 6.14362 61.8871 6.11009H61.8368V5.89219H61.8871C61.9095 5.86984 61.9206 5.83073 61.9206 5.77486C61.9206 5.70781 61.8983 5.67428 61.8536 5.67428C61.8201 5.66311 61.7754 5.624 61.7195 5.55695C61.7419 5.55695 61.781 5.52901 61.8368 5.47314C61.8927 5.40609 61.9206 5.3614 61.9206 5.33905C61.9206 5.28317 61.9095 5.25524 61.8871 5.25524H61.8368C61.8927 5.10997 61.9095 5.03733 61.8871 5.03733C61.8312 5.03733 61.8033 5.0094 61.8033 4.95352C61.8033 4.93117 61.7921 4.92 61.7698 4.92C61.7586 4.92 61.7419 4.93117 61.7195 4.95352V3.74667H61.8033C61.8368 3.71314 61.8368 3.64609 61.8033 3.54552H61.7195V2.55657H62.0547C62.0547 2.61244 62.0603 2.65155 62.0715 2.6739C62.0939 2.69625 62.1162 2.69625 62.1386 2.6739C62.2056 2.6739 62.2726 2.66832 62.3397 2.65714C62.4067 2.63479 62.485 2.61244 62.5744 2.59009V2.55657C62.6638 2.5007 62.9599 2.47276 63.4627 2.47276C63.4627 2.47276 63.4851 2.48393 63.5298 2.50628C63.5745 2.51746 63.6248 2.53422 63.6806 2.55657C63.5912 2.59009 63.5801 2.6292 63.6471 2.6739L63.6806 2.72419H63.6471C63.5912 2.81359 63.5912 2.8974 63.6471 2.97562H63.6806V3.66286C63.6248 3.66286 63.5857 3.70197 63.5633 3.78019C63.5521 3.84724 63.5354 3.88076 63.513 3.88076C63.513 3.93663 63.541 3.96457 63.5968 3.96457C63.5968 4.05397 63.5968 4.13219 63.5968 4.19924C63.608 4.25511 63.6248 4.29422 63.6471 4.31657H63.6806V6.79733C63.6806 6.83086 63.7086 6.84762 63.7645 6.84762V6.88114H63.6806V8.94286H63.6471C63.5912 9.03225 63.5912 9.11606 63.6471 9.19428H63.6806V9.32838C63.6583 9.30603 63.6304 9.30603 63.5968 9.32838C63.5633 9.35073 63.5354 9.39543 63.513 9.46248C63.4907 9.50717 63.4963 9.5407 63.5298 9.56305C63.5745 9.57422 63.6248 9.57981 63.6806 9.57981V10.0156H63.7645V10.619H63.6806V11.0381C63.6248 11.0381 63.5968 11.0549 63.5968 11.0884C63.5745 11.1107 63.6024 11.1219 63.6806 11.1219C63.7365 11.2672 63.7645 11.4851 63.7645 11.7756C63.7421 11.7533 63.7198 11.7421 63.6974 11.7421C63.6862 11.7421 63.6806 11.7533 63.6806 11.7756C63.6806 11.798 63.7086 11.8091 63.7645 11.8091V13.5691C63.6751 13.5691 63.6471 13.6138 63.6806 13.7032C63.7812 13.7032 63.8092 13.7591 63.7645 13.8709C63.6751 13.8709 63.6471 13.9156 63.6806 14.005C63.6806 14.0273 63.7086 14.0385 63.7645 14.0385V16.2678C63.7421 16.2455 63.7198 16.2566 63.6974 16.3013C63.6862 16.3349 63.6806 16.3963 63.6806 16.4857H63.7645V17.3406ZM55.3165 6.88114V6.84762H55.2326V6.88114H55.3165ZM73.6373 18.7989C73.4921 18.7653 73.4194 18.81 73.4194 18.933C73.3189 18.933 73.1904 18.9441 73.0339 18.9665C72.8886 18.9777 72.721 18.9944 72.5311 19.0168V19.067H71.4583C71.4806 19.0447 71.4862 19.0279 71.4751 19.0168C71.4639 19.0168 71.4304 19.0168 71.3745 19.0168C71.2851 19.0168 71.2516 19.0335 71.2739 19.067H71.1566C71.1566 19.0335 71.1398 19.0168 71.1063 19.0168C71.1063 19.0503 71.0672 19.067 70.989 19.067V19.0168C70.9666 19.0168 70.9331 19.0112 70.8884 19C70.8437 19 70.7878 18.9888 70.7208 18.9665H70.5029C70.447 18.9665 70.4191 19 70.4191 19.067H70.1676C70.2012 19.0335 70.2012 19.0168 70.1676 19.0168C70.1118 19.0168 70.0838 19.0335 70.0838 19.067H69.6145C69.6145 19.0335 69.5977 19.0168 69.5642 19.0168C69.5083 19.0168 69.4804 19.0335 69.4804 19.067H68.2735V19.0168C68.2177 19.0168 68.1339 19.0112 68.0221 19C67.9215 18.9777 67.8098 18.9553 67.6869 18.933C67.6869 18.8771 67.6533 18.8491 67.5863 18.8491V17.307C67.6198 17.2735 67.6813 17.2568 67.7707 17.2568H69.0446V17.173C69.1116 17.173 69.1843 17.1674 69.2625 17.1562C69.3519 17.1338 69.4525 17.1115 69.5642 17.0891L69.6145 14.1223C69.5586 14.0105 69.5139 13.9714 69.4804 14.005H69.5642L69.6145 13.2339H69.648C69.6927 13.1557 69.6927 13.0551 69.648 12.9322C69.6145 12.8763 69.5586 12.8484 69.4804 12.8484V12.379H69.5642C69.6201 12.245 69.6201 12.1164 69.5642 11.9935H69.4804V11.4236H69.5642C69.6089 11.3454 69.6089 11.2448 69.5642 11.1219H69.4804V11.0046H69.5642C69.6313 10.904 69.6313 10.8314 69.5642 10.7867H69.4804V10.6526C69.5474 10.6526 69.5866 10.6358 69.5977 10.6023C69.6089 10.5576 69.6257 10.5352 69.648 10.5352C69.648 10.4682 69.6257 10.4235 69.581 10.4011C69.5474 10.3788 69.5419 10.3341 69.5642 10.267H69.4804V9.79771H69.5642C69.6201 9.70832 69.6201 9.63568 69.5642 9.57981H69.4804V8.97638H69.5642C69.6089 8.87581 69.6089 8.76406 69.5642 8.64114C69.5419 8.60762 69.5139 8.59086 69.4804 8.59086H69.5642C69.6089 8.51263 69.6089 8.42882 69.5642 8.33943H69.4804V7.65219H69.5642C69.5642 7.49574 69.553 7.37282 69.5307 7.28343C69.5195 7.18286 69.5027 7.1214 69.4804 7.09905H69.5642C69.6089 7.02082 69.6089 6.93702 69.5642 6.84762H69.4804V6.27771C69.5251 6.32241 69.5698 6.32241 69.6145 6.27771C69.5921 6.22184 69.5698 6.18832 69.5474 6.17714C69.5251 6.16597 69.5027 6.17155 69.4804 6.1939V4.31657H69.3966C69.4189 4.20482 69.391 4.04838 69.3128 3.84724C69.2457 3.86959 69.1619 3.88635 69.0613 3.89752C68.9608 3.9087 68.8602 3.90311 68.7596 3.88076L68.7093 3.84724C68.687 3.86959 68.6646 3.88635 68.6423 3.89752C68.62 3.9087 68.5864 3.90311 68.5417 3.88076V3.84724C68.2288 3.84724 68.0556 3.85841 68.0221 3.88076C68.0221 3.82489 67.9942 3.79695 67.9383 3.79695H67.5863C67.564 3.70755 67.536 3.65168 67.5025 3.62933C67.469 3.60698 67.441 3.60698 67.4187 3.62933V2.89181C67.4746 2.89181 67.5025 2.88063 67.5025 2.85828C67.4466 2.85828 67.4187 2.79682 67.4187 2.6739H67.469C67.4913 2.65155 67.5025 2.61244 67.5025 2.55657C67.5025 2.5007 67.4913 2.456 67.469 2.42247H67.4187V2.25486C67.4634 2.24368 67.4913 2.22692 67.5025 2.20457C67.5248 2.18222 67.5472 2.16546 67.5695 2.15428C67.5919 2.13193 67.6198 2.10959 67.6533 2.08724C67.698 2.06489 67.7651 2.04813 67.8545 2.03695C67.8768 2.0593 67.8992 2.07606 67.9215 2.08724C67.9439 2.08724 67.9774 2.09841 68.0221 2.12076C68.4803 2.09841 69.0502 2.08165 69.7318 2.07048C70.4135 2.04813 71.218 2.03695 72.1455 2.03695V2.12076C72.2461 2.09841 72.369 2.08165 72.5143 2.07048C72.6707 2.04813 72.8607 2.03695 73.0842 2.03695C73.0842 2.07047 73.0954 2.09841 73.1177 2.12076C73.1848 2.12076 73.2183 2.09282 73.2183 2.03695C73.2518 2.09282 73.3189 2.12076 73.4194 2.12076C73.4194 2.40012 73.4194 2.61803 73.4194 2.77447C73.4306 2.91974 73.4474 3.02032 73.4697 3.07619H73.5033V3.57905C73.4474 3.64609 73.4083 3.69638 73.3859 3.7299C73.3636 3.75225 73.3636 3.7746 73.3859 3.79695C73.3189 3.76343 73.263 3.78019 73.2183 3.84724C72.6707 3.84724 72.369 3.85841 72.3132 3.88076C72.1791 3.74667 71.9779 3.73549 71.7097 3.84724C71.665 3.88076 71.5812 4.00927 71.4583 4.23276C71.503 4.23276 71.5421 4.2607 71.5756 4.31657C71.5756 4.33892 71.5645 4.36686 71.5421 4.40038H71.4583V9.19428H71.408C71.3745 9.28368 71.3745 9.37308 71.408 9.46248H71.4583V9.57981H71.408C71.3745 9.63568 71.3745 9.70832 71.408 9.79771H71.4583V10.5688H71.5421V11.3398H71.4583V12.1109C71.4024 12.1109 71.3745 12.1276 71.3745 12.1611C71.3745 12.2505 71.4024 12.2785 71.4583 12.245V13.4015H71.5421V13.4853H71.4583V13.787H71.5421V14.2229C71.5198 14.2229 71.4918 14.2508 71.4583 14.3067C71.4583 14.329 71.4862 14.3402 71.5421 14.3402V14.7257C71.4862 14.6922 71.4583 14.709 71.4583 14.776C71.4248 14.7983 71.4527 14.8095 71.5421 14.8095V15.9326H71.4583V16.1505H71.5421C71.5421 16.3851 71.5421 16.5807 71.5421 16.7371C71.5421 16.8824 71.5533 16.9997 71.5756 17.0891C71.665 17.1115 71.7712 17.1283 71.8941 17.1394C72.017 17.1394 72.1567 17.1506 72.3132 17.173V17.2568H73.5033C73.5033 17.3126 73.52 17.3573 73.5535 17.3909H73.6373V18.7989ZM87.4828 3.79695H87.399V4.01486C87.2873 4.03721 87.1979 4.05955 87.1308 4.0819C87.0638 4.09308 87.0079 4.09866 86.9632 4.09866V4.18247H86.5441C86.5665 4.16013 86.5721 4.14336 86.5609 4.13219C86.5497 4.10984 86.5106 4.09866 86.4436 4.09866C86.3542 4.09866 86.3262 4.1266 86.3598 4.18247C86.1921 4.20482 86.0525 4.22159 85.9407 4.23276C85.829 4.23276 85.7396 4.23276 85.6725 4.23276C85.6502 4.14336 85.5775 4.12101 85.4546 4.16571C85.3317 4.21041 85.1753 4.23276 84.9853 4.23276V4.18247C84.9629 4.216 84.9071 4.23276 84.8177 4.23276C84.7618 4.23276 84.7339 4.18806 84.7339 4.09866H84.3986V4.18247C84.2087 4.13778 83.9181 4.18247 83.527 4.31657C83.4488 4.35009 83.4097 4.46184 83.4097 4.65181H83.3594C83.3259 4.94235 83.3259 5.21613 83.3594 5.47314H83.4097V5.59048C83.3538 5.59048 83.3259 5.624 83.3259 5.69105C83.3259 5.74692 83.3538 5.77486 83.4097 5.77486V6.02628H83.3594C83.3259 6.14921 83.3259 6.24978 83.3594 6.328H83.4097V6.74705H83.3594C83.3259 6.80292 83.3259 6.87555 83.3594 6.96495H83.4097V14.0385C83.4544 14.1055 83.4823 14.1502 83.4935 14.1726C83.5158 14.1837 83.527 14.1558 83.527 14.0888H83.4432C83.4097 14.3793 83.4097 14.6643 83.4432 14.9436H83.527H83.4432C83.4097 15.0665 83.4097 15.1783 83.4432 15.2789H83.527V15.3794H83.4432C83.4097 15.48 83.4097 15.5917 83.4432 15.7147C83.4767 15.7147 83.5047 15.7314 83.527 15.765H83.4432C83.4097 16.1561 83.4097 16.5695 83.4432 17.0053H83.527V17.4747H83.4432C83.4097 17.5976 83.4097 17.6982 83.4432 17.7764H83.527V18.2457H83.4432C83.4097 18.3798 83.4097 18.5083 83.4432 18.6312H83.527V18.7653C83.5158 18.7653 83.432 18.8324 83.2756 18.9665C83.1191 18.933 82.9348 18.9665 82.7224 19.067H81.9514V18.9665H81.7335C81.7111 18.9665 81.6832 18.9441 81.6497 18.8994C81.6273 18.8436 81.5826 18.8268 81.5156 18.8491V18.1116H81.4821V17.9943C81.5044 18.0166 81.5156 18.0166 81.5156 17.9943C81.5156 17.9608 81.5044 17.9328 81.4821 17.9105V17.7764H81.5156V16.955H81.4821V16.7874C81.5267 16.7874 81.5491 16.7818 81.5491 16.7707C81.5491 16.7483 81.5379 16.726 81.5156 16.7036C81.5156 16.6366 81.5156 16.603 81.5156 16.603C81.5156 16.5919 81.5044 16.5975 81.4821 16.6198V14.2564H81.5156V13.8709H81.4821V13.0495H81.5156V12.7143H81.4821V12.4126H81.5156V12.0773H81.4821V8.69143C81.4374 8.64673 81.3927 8.64673 81.348 8.69143V8.55733H81.4318C81.4876 8.07682 81.4876 7.59073 81.4318 7.09905H81.348V4.31657C81.1803 4.13778 81.0965 4.09308 81.0965 4.18247C81.0071 4.18247 80.9792 4.19924 81.0127 4.23276C80.8227 4.23276 80.5937 4.22159 80.3255 4.19924C80.0685 4.17689 79.7779 4.14336 79.4539 4.09866V4.18247C79.3533 4.16013 79.2304 4.16013 79.0851 4.18247C78.951 4.19365 78.789 4.21041 78.599 4.23276C78.599 4.19924 78.4873 4.18247 78.2638 4.18247C78.2973 4.1266 78.2526 4.09866 78.1297 4.09866C78.1297 4.10984 78.0906 4.13778 78.0123 4.18247V4.09866C77.9453 4.09866 77.8559 4.09308 77.7441 4.0819C77.6436 4.05955 77.5318 4.03721 77.4089 4.01486C77.4089 3.95898 77.3921 3.91428 77.3586 3.88076H77.3251V3.62933C77.381 3.62933 77.4089 3.61257 77.4089 3.57905C77.4313 3.5567 77.4033 3.54552 77.3251 3.54552V2.47276C77.381 2.45041 77.4592 2.42806 77.5598 2.40571C77.6715 2.38336 77.8056 2.36101 77.9621 2.33867C77.9956 2.37219 78.0123 2.40013 78.0123 2.42247C78.0123 2.3666 78.0514 2.33867 78.1297 2.33867V2.38895C78.3085 2.42247 78.4649 2.42247 78.599 2.38895V2.33867H79.3701C79.3477 2.37219 79.3477 2.40013 79.3701 2.42247C79.4371 2.40013 79.4818 2.38895 79.5041 2.38895C79.5265 2.37778 79.5265 2.36101 79.5041 2.33867H81.0965C81.063 2.37219 81.063 2.40013 81.0965 2.42247C81.1524 2.40013 81.1915 2.38895 81.2139 2.38895C81.2362 2.37778 81.2362 2.36101 81.2139 2.33867C81.3591 2.39454 81.4485 2.4113 81.4821 2.38895V2.33867H82.0352V2.38895C82.3369 2.42247 82.6386 2.42247 82.9403 2.38895C82.9403 2.35543 82.9515 2.33867 82.9739 2.33867V2.38895C83.108 2.42247 83.2365 2.42247 83.3594 2.38895V2.33867H83.8287C83.8287 2.37219 83.8455 2.40013 83.879 2.42247C83.9461 2.40013 83.9796 2.38895 83.9796 2.38895C83.9908 2.37778 83.9852 2.36101 83.9628 2.33867H84.1807V2.38895C84.3036 2.42247 84.4321 2.42247 84.5662 2.38895V2.33867H84.9853C84.9629 2.36101 84.9574 2.38336 84.9685 2.40571C84.9797 2.41689 85.0188 2.42247 85.0859 2.42247C85.1417 2.40013 85.1753 2.38895 85.1864 2.38895C85.1976 2.37778 85.192 2.36101 85.1697 2.33867H85.6725V2.38895C85.7843 2.42247 85.9016 2.42247 86.0245 2.38895V2.33867H86.628V2.38895C86.7397 2.42247 86.8235 2.42247 86.8794 2.38895V2.33867H87.047V2.38895C87.0805 2.4113 87.1979 2.42247 87.399 2.42247C87.399 2.51187 87.4102 2.64038 87.4325 2.808C87.4661 2.97562 87.4828 3.09295 87.4828 3.16C87.4605 3.13765 87.4381 3.13206 87.4158 3.14324C87.4046 3.15441 87.399 3.17117 87.399 3.19352C87.3655 3.22705 87.3934 3.24381 87.4828 3.24381V3.79695ZM99.4007 17.2232H99.233V17.2568C99.0654 17.2568 98.9816 17.3126 98.9816 17.4244H98.6296C98.5402 17.4803 98.5123 17.5529 98.5458 17.6423H98.462C98.462 17.6646 98.4396 17.7149 98.3949 17.7931C98.3614 17.8602 98.3558 17.9272 98.3782 17.9943C98.2888 17.9719 98.1994 17.9887 98.11 18.0446C98.0206 18.0893 97.9647 18.1116 97.9424 18.1116V18.1954C97.853 18.1731 97.7692 18.1787 97.6909 18.2122C97.6127 18.2345 97.5289 18.3016 97.4395 18.4133V18.8491C97.2384 18.8827 97.1378 18.9385 97.1378 19.0168H96.8696V19.067H96.4003V19.0168C96.3444 19.0168 96.3053 19.0335 96.2829 19.067H95.713V19.0168C95.6572 19.0168 95.6181 19.0335 95.5957 19.067H95.0761C95.0761 19 95.0537 18.9665 95.009 18.9665C94.9643 18.9665 94.942 18.9553 94.942 18.933C94.8973 18.933 94.8526 18.933 94.8079 18.933C94.7632 18.9218 94.7073 18.905 94.6403 18.8827C94.3833 18.8827 94.2436 18.8994 94.2212 18.933V19.067H93.3664V19.0168H93.0144V19.067H92.7965V19.0168H92.5115V19.067H92.3774V19.0168C92.2657 19.0168 92.1148 18.9888 91.9249 18.933C91.7349 18.8771 91.584 18.8491 91.4723 18.8491C91.4723 18.7262 91.4443 18.7095 91.3885 18.7989V18.4971C91.3214 18.3966 91.2655 18.3295 91.2209 18.296C91.1873 18.2625 91.1315 18.2401 91.0532 18.229C90.9862 18.2066 90.8912 18.1843 90.7683 18.1619C90.6565 18.1396 90.4945 18.0837 90.2822 17.9943C90.3045 17.9272 90.3045 17.8434 90.2822 17.7429C90.2598 17.6423 90.2151 17.5361 90.1481 17.4244C90.1257 17.402 90.0419 17.3629 89.8967 17.307C89.7514 17.2512 89.5614 17.1897 89.3268 17.1227C89.3268 16.8433 89.3268 16.6086 89.3268 16.4187C89.3268 16.2175 89.3156 16.0387 89.2932 15.8823H89.2429V6.49562C89.2206 6.47327 89.1927 6.47327 89.1591 6.49562V6.27771C89.215 6.24419 89.2429 6.21625 89.2429 6.1939C89.2429 6.10451 89.215 6.07657 89.1591 6.11009V5.42286H89.2429C89.2876 5.34463 89.2876 5.26082 89.2429 5.17143C89.1535 5.17143 89.1256 5.15466 89.1591 5.12114H89.2429V4.26628C89.2429 4.24393 89.2709 4.22159 89.3268 4.19924C89.3826 4.17689 89.4106 4.15454 89.4106 4.13219C89.567 4.10984 89.6843 4.09308 89.7626 4.0819C89.852 4.05955 89.9078 4.04838 89.9302 4.04838V4.01486H90.1481L90.1816 3.49524H90.2319C90.2654 3.47289 90.2822 3.40025 90.2822 3.27733C90.3381 3.25498 90.4107 3.23822 90.5001 3.22705C90.5895 3.2047 90.7012 3.19352 90.8353 3.19352C90.8577 3.23822 90.8968 3.26616 90.9527 3.27733C91.0085 3.27733 91.07 3.26616 91.137 3.24381C91.1594 3.24381 91.1873 3.22705 91.2209 3.19352V2.55657C91.2432 2.55657 91.327 2.51187 91.4723 2.42247C91.6511 2.38895 91.7405 2.40571 91.7405 2.47276C91.9081 2.47276 92.0422 2.47276 92.1428 2.47276C92.2545 2.46159 92.3327 2.44482 92.3774 2.42247C92.4892 2.46717 92.6177 2.49511 92.7629 2.50628C92.9082 2.50628 93.0647 2.49511 93.2323 2.47276C93.3887 2.45041 93.601 2.43924 93.8692 2.43924C94.1374 2.42806 94.4671 2.42247 94.8582 2.42247V2.50628C94.9476 2.48393 94.9923 2.46717 94.9923 2.456C94.9923 2.43365 95.0482 2.42247 95.1599 2.42247V2.47276C95.2716 2.45041 95.3946 2.43924 95.5287 2.43924C95.6628 2.42806 95.8248 2.42247 96.0148 2.42247C96.1489 2.40013 96.3165 2.4113 96.5176 2.456C96.7299 2.48952 96.9758 2.53422 97.2551 2.59009C97.2551 2.78006 97.2551 2.91416 97.2551 2.99238C97.2663 3.05943 97.2942 3.10971 97.3389 3.14324C97.3948 3.16559 97.4842 3.18235 97.6071 3.19352C97.7301 3.2047 97.9033 3.23263 98.1268 3.27733C98.0709 3.36673 98.1268 3.41143 98.2944 3.41143C98.2944 3.70197 98.3223 3.84724 98.3782 3.84724C98.367 3.89194 98.367 3.91987 98.3782 3.93105C98.4005 3.94222 98.4229 3.9534 98.4452 3.96457C98.4676 3.97574 98.4899 3.98692 98.5123 3.99809C98.5346 3.99809 98.5458 4.01486 98.5458 4.04838C98.6799 4.01486 98.909 4.04279 99.233 4.13219C99.2107 4.15454 99.2051 4.1713 99.2163 4.18247C99.2386 4.19365 99.2722 4.21041 99.3169 4.23276V5.42286H99.4007V6.02628H99.3169C99.2945 6.18273 99.3057 6.33359 99.3504 6.47886C99.4062 6.62413 99.423 6.77498 99.4007 6.93143C99.3783 6.90908 99.356 6.8979 99.3336 6.8979C99.3224 6.8979 99.3169 6.92025 99.3169 6.96495C99.3169 7.032 99.3224 7.07111 99.3336 7.08228C99.356 7.08228 99.3783 7.07111 99.4007 7.04876V8.00419C99.3783 7.98184 99.356 7.97625 99.3336 7.98743C99.3224 7.9986 99.3169 8.01536 99.3169 8.03771C99.3169 8.10476 99.3224 8.14387 99.3336 8.15505C99.356 8.15505 99.3783 8.14387 99.4007 8.12152V10.8202C99.3783 10.8425 99.3616 10.8761 99.3504 10.9208C99.3504 10.9543 99.3392 10.9934 99.3169 11.0381H99.4007V15.4632H99.3169C99.2833 15.642 99.2833 15.7985 99.3169 15.9326H99.4007V17.2232ZM97.5233 12.7143V12.5467H97.4395V11.256C97.3501 11.3119 97.3054 11.2839 97.3054 11.1722C97.3054 11.1387 97.3501 11.1219 97.4395 11.1219V10.3509C97.3836 10.3509 97.3389 10.3397 97.3054 10.3173L97.3557 6.71352H97.4395V6.49562H97.3557C97.3334 6.38387 97.3166 6.25536 97.3054 6.11009C97.3054 5.95365 97.3054 5.76927 97.3054 5.55695H97.2551V5.20495C97.2104 5.2273 97.1769 5.23847 97.1546 5.23847C97.1434 5.2273 97.1378 5.18819 97.1378 5.12114H97.0037C97.0261 5.14349 97.0261 5.16025 97.0037 5.17143C96.9925 5.17143 96.9646 5.1826 96.9199 5.20495C96.8864 5.1826 96.8696 5.15466 96.8696 5.12114C96.8249 5.09879 96.769 5.08203 96.702 5.07086C96.6461 5.04851 96.5735 5.02616 96.4841 5.00381C96.4841 5.02616 96.4506 4.98705 96.3835 4.88647C96.3165 4.7859 96.2829 4.67974 96.2829 4.568H96.2327C96.2103 4.568 96.1991 4.5233 96.1991 4.4339C96.1321 4.41155 96.0371 4.3892 95.9142 4.36686C95.7913 4.34451 95.6572 4.31098 95.5119 4.26628V4.23276H95.3778V4.26628C95.1543 4.28863 94.9588 4.31098 94.7911 4.33333C94.6235 4.34451 94.4615 4.33892 94.305 4.31657C94.305 4.28305 94.2771 4.26628 94.2212 4.26628C94.1877 4.26628 94.1877 4.25511 94.2212 4.23276C94.1877 4.23276 94.1709 4.24393 94.1709 4.26628C93.9586 4.31098 93.7854 4.33892 93.6513 4.35009C93.5172 4.35009 93.4222 4.33892 93.3664 4.31657C93.344 4.29422 93.2937 4.28305 93.2155 4.28305C93.1373 4.27187 93.0423 4.26628 92.9306 4.26628C92.9864 4.32216 92.9585 4.35009 92.8468 4.35009C92.8468 4.29422 92.8244 4.26628 92.7797 4.26628C92.735 4.26628 92.7015 4.25511 92.6791 4.23276C92.5227 4.21041 92.4277 4.24394 92.3942 4.33333C92.3718 4.41155 92.3495 4.46184 92.3271 4.48419H92.2433V4.7859H92.1595C92.1595 4.84178 92.0757 4.91441 91.9081 5.00381C91.7516 5.08203 91.5784 5.12114 91.3885 5.12114V5.17143C91.3661 5.17143 91.3382 5.19378 91.3047 5.23847C91.2711 5.28317 91.2432 5.30552 91.2209 5.30552V5.77486H91.137V5.976C91.1594 5.9313 91.1762 5.91454 91.1873 5.92571C91.2097 5.92571 91.2209 5.95924 91.2209 6.02628C91.2544 6.11568 91.2264 6.16038 91.137 6.16038V6.328C91.1594 6.328 91.1706 6.33917 91.1706 6.36152C91.1817 6.3727 91.1985 6.38946 91.2209 6.41181H91.137V6.74705H91.2209V7.26667H91.137V7.78628H91.2209V8.00419H91.137V8.33943C91.1594 8.33943 91.1706 8.3506 91.1706 8.37295C91.1817 8.38413 91.1985 8.40089 91.2209 8.42324H91.137C91.1594 8.42324 91.1873 8.44 91.2209 8.47352V9.57981H91.137V10.0994H91.2209V10.9543H91.137C91.1594 10.9319 91.1873 10.9319 91.2209 10.9543V12.9657H91.137L91.2209 13.0495V15.7985H91.137V15.9661H91.2209V16.184C91.2767 16.184 91.3047 16.2119 91.3047 16.2678C91.4723 16.2678 91.6064 16.2734 91.7069 16.2846C91.8187 16.2846 91.8969 16.2957 91.9416 16.3181C92.0198 16.3181 92.0757 16.3237 92.1092 16.3349C92.1539 16.3349 92.1819 16.3572 92.193 16.4019C92.2154 16.4466 92.2266 16.5192 92.2266 16.6198C92.2377 16.7092 92.2433 16.8377 92.2433 17.0053C92.3215 16.9606 92.4109 16.9997 92.5115 17.1227C92.9026 17.1227 93.2435 17.1283 93.534 17.1394C93.8245 17.1394 94.0815 17.1506 94.305 17.173C94.3497 17.1506 94.3944 17.1506 94.4391 17.173C94.4838 17.1841 94.5397 17.2009 94.6068 17.2232C94.7744 17.2009 94.9867 17.1785 95.2437 17.1562C95.5119 17.1338 95.8304 17.1227 96.1991 17.1227C96.1991 17.0668 96.2662 17.0389 96.4003 17.0389V16.7874H96.4506C96.4506 16.7316 96.4338 16.7148 96.4003 16.7371V16.4857C96.4338 16.4857 96.4506 16.4578 96.4506 16.4019C96.5623 16.3796 96.6964 16.3572 96.8529 16.3349C97.0205 16.3013 97.216 16.251 97.4395 16.184V12.7143H97.5233ZM111.235 8.89257H111.184C111.162 8.92609 111.151 8.99873 111.151 9.11048C111.006 9.11048 110.916 9.12724 110.883 9.16076V9.24457C110.827 9.24457 110.743 9.25575 110.631 9.27809C110.531 9.28927 110.419 9.32279 110.296 9.37867C110.274 9.43454 110.246 9.51835 110.212 9.63009C110.19 9.73067 110.156 9.85917 110.112 10.0156C109.888 10.0156 109.76 10.0268 109.726 10.0491C109.704 10.0044 109.665 9.98209 109.609 9.98209C109.553 9.98209 109.491 9.99327 109.424 10.0156C109.38 10.0156 109.341 10.0491 109.307 10.1162C109.274 10.1832 109.257 10.2615 109.257 10.3509H109.173V10.5688C109.128 10.5352 109.084 10.5799 109.039 10.7029C108.983 10.7029 108.933 10.7308 108.888 10.7867C108.855 10.8425 108.838 10.8705 108.838 10.8705H108.62C108.586 10.837 108.57 10.809 108.57 10.7867C108.48 10.809 108.408 10.837 108.352 10.8705C108.296 10.8928 108.257 10.9375 108.234 11.0046L108.184 11.3063C108.173 11.3175 108.173 11.3398 108.184 11.3733C108.195 11.4069 108.195 11.446 108.184 11.4907C108.184 11.5242 108.162 11.5577 108.117 11.5912C108.072 11.6248 107.994 11.6415 107.882 11.6415V11.5577C107.86 11.5577 107.821 11.5856 107.765 11.6415C107.676 11.5633 107.586 11.5521 107.497 11.608C107.441 11.608 107.385 11.6192 107.329 11.6415V11.7253H106.34V11.6415C106.15 11.6415 105.994 11.6415 105.871 11.6415C105.759 11.6415 105.675 11.6303 105.619 11.608L105.485 11.7253V11.6415C105.407 11.608 105.307 11.608 105.184 11.6415V11.7253H104.547C104.547 11.6695 104.53 11.6415 104.496 11.6415C104.441 11.6415 104.413 11.6695 104.413 11.7253H103.474C103.452 11.703 103.435 11.6806 103.424 11.6583C103.424 11.6359 103.412 11.6024 103.39 11.5577C103.379 11.5912 103.357 11.6136 103.323 11.6248C103.301 11.6248 103.273 11.6359 103.239 11.6583C103.206 11.6695 103.178 11.6974 103.155 11.7421C103.133 11.7756 103.122 11.8427 103.122 11.9432H103.038C103.005 12.3008 103.033 12.502 103.122 12.5467L103.038 12.5802V13.5691H103.122V13.9211C103.1 13.9211 103.072 13.9323 103.038 13.9547C103.094 13.9211 103.122 13.977 103.122 14.1223H103.038C103.005 14.3905 103.005 14.6475 103.038 14.8933H103.122V15.7985C103.066 15.7426 103.038 15.7426 103.038 15.7985C103.005 15.8543 103.005 15.8823 103.038 15.8823C103.094 15.8823 103.122 15.899 103.122 15.9326H103.038C103.005 16.022 103.005 16.1058 103.038 16.184H103.122V16.2678H103.038C103.005 16.3572 103.005 16.4466 103.038 16.536H103.122V17.8602H103.038C103.005 17.9831 103.005 18.0949 103.038 18.1954H103.122V18.7989H103.038V19.0168C102.926 19.0168 102.871 19.0726 102.871 19.1844C102.502 19.1844 102.39 19.1564 102.535 19.1006C102.535 19.0447 102.474 19.0726 102.351 19.1844V19.1006C102.261 19.1229 102.155 19.1341 102.032 19.1341C101.909 19.1453 101.759 19.162 101.58 19.1844C101.58 19.1509 101.552 19.1229 101.496 19.1006C101.451 19.0782 101.401 19.0559 101.345 19.0335C101.289 19.0112 101.239 18.9944 101.194 18.9832C101.161 18.9609 101.15 18.9441 101.161 18.933V17.3909H101.245C101.278 17.3462 101.278 17.2568 101.245 17.1227H101.161V16.2678H101.077H101.161C101.194 16.0667 101.194 15.8823 101.161 15.7147H101.077V15.5806H101.161C101.194 15.48 101.194 15.413 101.161 15.3794H101.077V15.1615H101.161C101.194 14.938 101.194 14.709 101.161 14.4743C101.116 14.4743 101.083 14.4687 101.06 14.4575C101.049 14.4352 101.055 14.4128 101.077 14.3905C101.122 14.3905 101.15 14.3849 101.161 14.3737C101.183 14.3514 101.183 14.329 101.161 14.3067C101.161 14.2396 101.15 14.2061 101.127 14.2061C101.116 14.1949 101.099 14.2117 101.077 14.2564V13.653H101.161C101.194 13.5636 101.194 13.4909 101.161 13.435H101.077V13.2339C101.099 13.2563 101.116 13.2674 101.127 13.2674C101.15 13.2674 101.161 13.2563 101.161 13.2339L101.077 13.1501V12.5802H101.161C101.194 12.502 101.194 12.4014 101.161 12.2785H101.077V11.4236C101.099 11.446 101.116 11.4571 101.127 11.4571C101.15 11.4571 101.161 11.446 101.161 11.4236L101.077 11.3398V11.1722H101.161C101.194 11.0381 101.194 10.8816 101.161 10.7029H101.077C101.099 10.6805 101.111 10.647 101.111 10.6023C101.122 10.5576 101.138 10.5017 101.161 10.4347H101.077V9.79771C101.133 9.79771 101.161 9.78654 101.161 9.76419C101.183 9.73067 101.155 9.7139 101.077 9.7139V6.1939H101.161C101.194 6.05981 101.194 5.90336 101.161 5.72457H101.077V5.47314H101.161C101.194 5.3614 101.194 5.24406 101.161 5.12114H101.077V4.40038C101.133 4.40038 101.166 4.37244 101.178 4.31657C101.2 4.24952 101.222 4.20482 101.245 4.18247C101.245 4.09308 101.217 4.07632 101.161 4.13219V3.74667H101.077V3.46171H101.161C101.194 3.22705 101.194 2.99797 101.161 2.77447H101.077V2.59009C101.155 2.55657 101.183 2.52863 101.161 2.50628H102.016V2.59009C102.016 2.53422 102.06 2.50628 102.15 2.50628V2.55657C102.15 2.55657 102.228 2.54539 102.384 2.52305C102.552 2.5007 102.798 2.46717 103.122 2.42247V2.47276H103.424C103.491 2.45041 103.547 2.43924 103.591 2.43924C103.636 2.42806 103.681 2.42247 103.725 2.42247C103.859 2.42247 104.038 2.43365 104.262 2.456C104.485 2.46717 104.714 2.48393 104.949 2.50628C105.184 2.51746 105.413 2.52863 105.636 2.53981C105.86 2.55098 106.039 2.55657 106.173 2.55657C106.173 2.51187 106.318 2.46717 106.608 2.42247C106.787 2.51187 107.044 2.55657 107.379 2.55657C107.402 2.53422 107.458 2.52305 107.547 2.52305C107.648 2.51187 107.776 2.50628 107.933 2.50628C107.877 2.56216 107.921 2.59009 108.067 2.59009V2.85828H108.151V3.07619C108.061 3.07619 108.033 3.08736 108.067 3.10971C108.078 3.10971 108.106 3.16559 108.151 3.27733H108.402V3.36114C108.447 3.33879 108.475 3.32762 108.486 3.32762C108.508 3.31644 108.508 3.29968 108.486 3.27733H109.039C109.005 3.69079 109.095 3.96457 109.307 4.09866C109.363 4.09866 109.452 4.10984 109.575 4.13219C109.709 4.14336 109.86 4.16013 110.028 4.18247C110.028 4.216 110.056 4.23276 110.112 4.23276C110.078 4.34451 110.106 4.51213 110.195 4.73562C110.195 4.82501 110.251 4.86971 110.363 4.86971C110.486 4.85854 110.721 4.88647 111.067 4.95352C111.045 4.97587 111.034 4.99263 111.034 5.00381C111.045 5.00381 111.084 5.01498 111.151 5.03733C111.151 5.43962 111.162 5.6687 111.184 5.72457H111.235V5.94247H111.184L111.151 6.36152C111.095 6.328 111.067 6.328 111.067 6.36152C111.034 6.39505 111.061 6.41181 111.151 6.41181C111.151 6.70235 111.179 6.87555 111.235 6.93143H111.184C111.151 7.04317 111.151 7.14374 111.184 7.23314H111.235V8.89257ZM109.341 7.53486V7.23314C109.285 7.23314 109.234 7.22197 109.19 7.19962C109.156 7.17727 109.151 7.14374 109.173 7.09905C109.173 7.0767 109.179 7.06552 109.19 7.06552C109.212 7.06552 109.234 7.0767 109.257 7.09905C109.257 6.9873 109.229 6.95936 109.173 7.01524V6.57943H109.257V6.16038H109.173V5.47314H109.089C109.089 5.40609 109.067 5.33346 109.022 5.25524C108.989 5.17701 108.894 5.14908 108.737 5.17143C108.704 5.24965 108.62 5.26082 108.486 5.20495C108.419 5.1826 108.352 5.14349 108.285 5.08762C108.218 5.03174 108.184 4.95911 108.184 4.86971C108.162 4.86971 108.151 4.7859 108.151 4.61828H108.067V4.4339C107.866 4.4339 107.748 4.42273 107.715 4.40038H107.379C107.402 4.42273 107.368 4.4339 107.279 4.4339C107.257 4.41155 107.257 4.40038 107.279 4.40038H106.86C106.837 4.42273 106.81 4.44508 106.776 4.46743C106.743 4.4786 106.715 4.48419 106.692 4.48419C106.648 4.48419 106.603 4.4786 106.558 4.46743C106.525 4.44508 106.497 4.42273 106.474 4.40038H105.921C105.944 4.42273 105.916 4.4339 105.837 4.4339C105.748 4.4339 105.703 4.42273 105.703 4.40038H105.485C105.519 4.42273 105.491 4.4339 105.402 4.4339C105.256 4.31098 105.184 4.27187 105.184 4.31657C105.117 4.31657 104.988 4.34451 104.798 4.40038C104.776 4.42273 104.742 4.44508 104.698 4.46743C104.664 4.4786 104.625 4.48419 104.58 4.48419C104.558 4.48419 104.53 4.4786 104.496 4.46743C104.463 4.44508 104.435 4.42273 104.413 4.40038H104.111C103.999 4.40038 103.876 4.40038 103.742 4.40038C103.608 4.40038 103.446 4.41155 103.256 4.4339C103.234 4.45625 103.206 4.48978 103.172 4.53447C103.15 4.568 103.105 4.60711 103.038 4.65181V5.47314H103.005C103.027 5.47314 103.038 5.50108 103.038 5.55695C103.038 5.5793 103.027 5.59048 103.005 5.59048V5.85867H103.038C103.06 5.97041 103.072 6.07098 103.072 6.16038C103.083 6.24978 103.088 6.35035 103.088 6.46209C103.088 6.56267 103.083 6.66882 103.072 6.78057C103.072 6.88114 103.06 6.9873 103.038 7.09905H103.005V8.3059H103.038V9.66362C103.038 9.66362 103.06 9.68038 103.105 9.7139C103.15 9.73625 103.217 9.78095 103.306 9.848C103.418 9.76978 103.474 9.75301 103.474 9.79771C103.619 9.79771 103.692 9.81448 103.692 9.848C103.714 9.81448 103.843 9.79771 104.077 9.79771C104.178 9.77536 104.29 9.76978 104.413 9.78095C104.547 9.78095 104.692 9.8033 104.848 9.848C104.938 9.87035 105.033 9.87594 105.133 9.86476C105.245 9.84241 105.362 9.82006 105.485 9.79771C105.552 9.75301 105.608 9.76978 105.653 9.848C106.458 9.8033 107 9.8033 107.279 9.848C107.346 9.848 107.413 9.84241 107.48 9.83124C107.547 9.80889 107.625 9.78654 107.715 9.76419C107.826 9.71949 107.882 9.71949 107.882 9.76419C107.905 9.74184 107.944 9.73067 108 9.73067C108.067 9.71949 108.128 9.7139 108.184 9.7139C108.184 9.56863 108.201 9.48482 108.234 9.46248H108.318V9.32838H108.234C108.19 9.20546 108.19 9.10489 108.234 9.02667H108.737V8.94286C108.86 8.97638 109.005 8.94844 109.173 8.85905C109.151 8.792 109.139 8.7473 109.139 8.72495C109.139 8.69143 109.151 8.66349 109.173 8.64114H109.257V8.20533C109.201 8.20533 109.173 8.19416 109.173 8.17181C109.117 8.11594 109.145 8.088 109.257 8.088C109.257 7.93155 109.257 7.81422 109.257 7.736C109.268 7.6466 109.285 7.57955 109.307 7.53486H109.341ZM121.108 18.7989C120.962 18.7653 120.89 18.81 120.89 18.933C120.789 18.933 120.661 18.9441 120.504 18.9665C120.359 18.9777 120.191 18.9944 120.001 19.0168V19.067H118.929C118.951 19.0447 118.956 19.0279 118.945 19.0168C118.934 19.0168 118.901 19.0168 118.845 19.0168C118.755 19.0168 118.722 19.0335 118.744 19.067H118.627C118.627 19.0335 118.61 19.0168 118.577 19.0168C118.577 19.0503 118.537 19.067 118.459 19.067V19.0168C118.437 19.0168 118.403 19.0112 118.359 19C118.314 19 118.258 18.9888 118.191 18.9665H117.973C117.917 18.9665 117.889 19 117.889 19.067H117.638C117.671 19.0335 117.671 19.0168 117.638 19.0168C117.582 19.0168 117.554 19.0335 117.554 19.067H117.085C117.085 19.0335 117.068 19.0168 117.034 19.0168C116.979 19.0168 116.951 19.0335 116.951 19.067H115.744V19.0168C115.688 19.0168 115.604 19.0112 115.492 19C115.392 18.9777 115.28 18.9553 115.157 18.933C115.157 18.8771 115.124 18.8491 115.057 18.8491V17.307C115.09 17.2735 115.152 17.2568 115.241 17.2568H116.515V17.173C116.582 17.173 116.655 17.1674 116.733 17.1562C116.822 17.1338 116.923 17.1115 117.034 17.0891L117.085 14.1223C117.029 14.0105 116.984 13.9714 116.951 14.005H117.034L117.085 13.2339H117.118C117.163 13.1557 117.163 13.0551 117.118 12.9322C117.085 12.8763 117.029 12.8484 116.951 12.8484V12.379H117.034C117.09 12.245 117.09 12.1164 117.034 11.9935H116.951V11.4236H117.034C117.079 11.3454 117.079 11.2448 117.034 11.1219H116.951V11.0046H117.034C117.101 10.904 117.101 10.8314 117.034 10.7867H116.951V10.6526C117.018 10.6526 117.057 10.6358 117.068 10.6023C117.079 10.5576 117.096 10.5352 117.118 10.5352C117.118 10.4682 117.096 10.4235 117.051 10.4011C117.018 10.3788 117.012 10.3341 117.034 10.267H116.951V9.79771H117.034C117.09 9.70832 117.09 9.63568 117.034 9.57981H116.951V8.97638H117.034C117.079 8.87581 117.079 8.76406 117.034 8.64114C117.012 8.60762 116.984 8.59086 116.951 8.59086H117.034C117.079 8.51263 117.079 8.42882 117.034 8.33943H116.951V7.65219H117.034C117.034 7.49574 117.023 7.37282 117.001 7.28343C116.99 7.18286 116.973 7.1214 116.951 7.09905H117.034C117.079 7.02082 117.079 6.93702 117.034 6.84762H116.951V6.27771C116.995 6.32241 117.04 6.32241 117.085 6.27771C117.062 6.22184 117.04 6.18832 117.018 6.17714C116.995 6.16597 116.973 6.17155 116.951 6.1939V4.31657H116.867C116.889 4.20482 116.861 4.04838 116.783 3.84724C116.716 3.86959 116.632 3.88635 116.532 3.89752C116.431 3.9087 116.33 3.90311 116.23 3.88076L116.18 3.84724C116.157 3.86959 116.135 3.88635 116.113 3.89752C116.09 3.9087 116.057 3.90311 116.012 3.88076V3.84724C115.699 3.84724 115.526 3.85841 115.492 3.88076C115.492 3.82489 115.464 3.79695 115.409 3.79695H115.057C115.034 3.70755 115.006 3.65168 114.973 3.62933C114.939 3.60698 114.911 3.60698 114.889 3.62933V2.89181C114.945 2.89181 114.973 2.88063 114.973 2.85828C114.917 2.85828 114.889 2.79682 114.889 2.6739H114.939C114.962 2.65155 114.973 2.61244 114.973 2.55657C114.973 2.5007 114.962 2.456 114.939 2.42247H114.889V2.25486C114.934 2.24368 114.962 2.22692 114.973 2.20457C114.995 2.18222 115.017 2.16546 115.04 2.15428C115.062 2.13193 115.09 2.10959 115.124 2.08724C115.168 2.06489 115.235 2.04813 115.325 2.03695C115.347 2.0593 115.369 2.07606 115.392 2.08724C115.414 2.08724 115.448 2.09841 115.492 2.12076C115.951 2.09841 116.52 2.08165 117.202 2.07048C117.884 2.04813 118.688 2.03695 119.616 2.03695V2.12076C119.716 2.09841 119.839 2.08165 119.985 2.07048C120.141 2.04813 120.331 2.03695 120.554 2.03695C120.554 2.07047 120.566 2.09841 120.588 2.12076C120.655 2.12076 120.689 2.09282 120.689 2.03695C120.722 2.09282 120.789 2.12076 120.89 2.12076C120.89 2.40012 120.89 2.61803 120.89 2.77447C120.901 2.91974 120.918 3.02032 120.94 3.07619H120.973V3.57905C120.918 3.64609 120.879 3.69638 120.856 3.7299C120.834 3.75225 120.834 3.7746 120.856 3.79695C120.789 3.76343 120.733 3.78019 120.689 3.84724C120.141 3.84724 119.839 3.85841 119.783 3.88076C119.649 3.74667 119.448 3.73549 119.18 3.84724C119.135 3.88076 119.051 4.00927 118.929 4.23276C118.973 4.23276 119.012 4.2607 119.046 4.31657C119.046 4.33892 119.035 4.36686 119.012 4.40038H118.929V9.19428H118.878C118.845 9.28368 118.845 9.37308 118.878 9.46248H118.929V9.57981H118.878C118.845 9.63568 118.845 9.70832 118.878 9.79771H118.929V10.5688H119.012V11.3398H118.929V12.1109C118.873 12.1109 118.845 12.1276 118.845 12.1611C118.845 12.2505 118.873 12.2785 118.929 12.245V13.4015H119.012V13.4853H118.929V13.787H119.012V14.2229C118.99 14.2229 118.962 14.2508 118.929 14.3067C118.929 14.329 118.956 14.3402 119.012 14.3402V14.7257C118.956 14.6922 118.929 14.709 118.929 14.776C118.895 14.7983 118.923 14.8095 119.012 14.8095V15.9326H118.929V16.1505H119.012C119.012 16.3851 119.012 16.5807 119.012 16.7371C119.012 16.8824 119.024 16.9997 119.046 17.0891C119.135 17.1115 119.241 17.1283 119.364 17.1394C119.487 17.1394 119.627 17.1506 119.783 17.173V17.2568H120.973C120.973 17.3126 120.99 17.3573 121.024 17.3909H121.108V18.7989ZM134.987 18.9665C134.875 19.0112 134.819 19.0838 134.819 19.1844C134.73 19.2067 134.623 19.2235 134.5 19.2347C134.378 19.257 134.227 19.257 134.048 19.2347C134.026 19.2123 133.975 19.1956 133.897 19.1844C133.819 19.1844 133.724 19.1844 133.612 19.1844C133.634 19.162 133.646 19.1397 133.646 19.1173C133.646 19.1062 133.634 19.1006 133.612 19.1006C133.556 19.1006 133.523 19.1062 133.512 19.1173C133.5 19.1397 133.506 19.162 133.528 19.1844C133.405 19.1844 133.255 19.1844 133.076 19.1844C132.908 19.1956 132.701 19.2123 132.456 19.2347C132.433 19.2011 132.338 19.1844 132.171 19.1844C132.148 19.1844 132.087 19.1956 131.986 19.2179C131.897 19.2403 131.757 19.2738 131.567 19.3185C131.478 19.2961 131.377 19.2738 131.265 19.2514C131.165 19.2291 131.036 19.2067 130.88 19.1844C130.835 19.162 130.768 19.1564 130.679 19.1676C130.589 19.19 130.483 19.2123 130.36 19.2347C130.36 19.257 130.349 19.257 130.327 19.2347C130.304 19.2123 130.26 19.1676 130.193 19.1006C130.126 19.1006 130.081 19.1062 130.059 19.1173C130.036 19.1397 130.036 19.162 130.059 19.1844C130.003 19.1732 129.93 19.1732 129.841 19.1844C129.762 19.2067 129.679 19.2235 129.589 19.2347C129.5 19.257 129.416 19.2738 129.338 19.285C129.26 19.3073 129.198 19.3185 129.153 19.3185C128.874 19.3185 128.679 19.3073 128.567 19.285C128.466 19.2738 128.449 19.257 128.516 19.2347C128.449 19.2347 128.366 19.2403 128.265 19.2514C128.164 19.2738 128.036 19.2961 127.88 19.3185V19.2682C127.589 19.2347 127.388 19.2514 127.276 19.3185C127.164 19.2961 127.053 19.2738 126.941 19.2514C126.829 19.2291 126.712 19.2067 126.589 19.1844C126.522 19.162 126.444 19.1564 126.354 19.1676C126.265 19.19 126.159 19.2123 126.036 19.2347V19.1844C125.969 19.2067 125.879 19.2291 125.768 19.2514C125.667 19.2738 125.555 19.2961 125.432 19.3185C125.421 19.2626 125.388 19.2235 125.332 19.2011C125.287 19.19 125.231 19.1788 125.164 19.1676C125.108 19.1676 125.052 19.162 124.996 19.1509C124.952 19.1509 124.924 19.1341 124.913 19.1006C124.935 19.0112 124.941 18.9106 124.929 18.7989C124.918 18.6759 124.901 18.5363 124.879 18.3798H124.829V17.9105H124.879C124.901 17.8881 124.913 17.8658 124.913 17.8434C124.924 17.8211 124.941 17.7987 124.963 17.7764C124.941 17.687 124.907 17.6367 124.862 17.6255C124.818 17.6032 124.807 17.5808 124.829 17.5585H124.879C124.901 17.4356 124.918 17.307 124.929 17.173C124.952 17.0389 124.963 16.8936 124.963 16.7371C124.963 16.5919 124.952 16.4578 124.929 16.3349C124.918 16.2008 124.901 16.0778 124.879 15.9661H124.829V14.2564C124.941 14.2564 124.969 14.2284 124.913 14.1726C124.89 14.1055 124.874 14.072 124.862 14.072C124.862 14.0608 124.851 14.0664 124.829 14.0888V11.5074C124.885 11.5633 124.913 11.5633 124.913 11.5074C124.913 11.4851 124.885 11.4739 124.829 11.4739V10.6526H124.879V9.66362H124.829V9.07695C124.885 9.07695 124.913 9.06019 124.913 9.02667C124.969 8.97079 124.941 8.94286 124.829 8.94286V8.17181H124.745V7.18286H124.829C124.874 7.01524 124.874 6.84203 124.829 6.66324H124.745V6.36152H124.829C124.874 6.2833 124.874 6.18832 124.829 6.07657H124.745V5.38933H124.829C124.874 5.31111 124.874 5.21054 124.829 5.08762H124.745V4.01486H124.829C124.885 3.95898 124.885 3.88635 124.829 3.79695H124.745V2.55657H124.829V1.81905C125.108 1.72965 125.455 1.70171 125.868 1.73524C125.924 1.73524 125.957 1.76317 125.969 1.81905C125.98 1.87492 126.013 1.90285 126.069 1.90285C126.125 1.90285 126.17 1.89168 126.203 1.86933V1.81905C126.349 1.81905 126.421 1.79111 126.421 1.73524C126.701 1.75759 127.058 1.77435 127.494 1.78552C127.941 1.78552 128.466 1.78552 129.07 1.78552C129.137 1.71847 129.282 1.70171 129.505 1.73524C129.539 1.76876 129.796 1.78552 130.276 1.78552C130.276 1.752 130.388 1.73524 130.612 1.73524C130.612 1.80228 130.701 1.81905 130.88 1.78552V1.73524C130.98 1.79111 131.064 1.80787 131.131 1.78552C131.131 1.78552 131.159 1.77435 131.215 1.752C131.282 1.72965 131.372 1.69613 131.483 1.65143V1.70171C131.64 1.70171 131.824 1.71289 132.036 1.73524C132.249 1.74641 132.517 1.77435 132.841 1.81905C132.841 1.85257 132.858 1.88051 132.891 1.90285C132.947 1.88051 132.964 1.85257 132.942 1.81905C133.132 1.81905 133.215 1.83581 133.193 1.86933V1.81905C133.171 1.81905 133.227 1.80787 133.361 1.78552C133.495 1.76317 133.713 1.71847 134.014 1.65143C134.07 1.69613 134.16 1.72965 134.283 1.752C134.406 1.77435 134.54 1.7967 134.685 1.81905C134.651 1.90844 134.696 1.95314 134.819 1.95314C134.819 2.23251 134.819 2.47835 134.819 2.69066C134.83 2.90298 134.847 3.08736 134.869 3.24381H134.903V3.46171C134.735 3.46171 134.679 3.52876 134.735 3.66286C134.679 3.66286 134.663 3.67962 134.685 3.71314C134.406 3.66844 134.16 3.64609 133.947 3.64609C133.735 3.63492 133.539 3.64051 133.361 3.66286C133.204 3.66286 133.02 3.66844 132.808 3.67962C132.606 3.67962 132.361 3.69079 132.07 3.71314C132.048 3.71314 132.02 3.71314 131.986 3.71314C131.953 3.70197 131.925 3.6852 131.902 3.66286C131.902 3.66286 131.83 3.67403 131.684 3.69638C131.539 3.71873 131.327 3.75225 131.048 3.79695C131.014 3.79695 130.969 3.75225 130.913 3.66286C130.858 3.66286 130.846 3.67962 130.88 3.71314H129.941C129.919 3.69079 129.885 3.67962 129.841 3.67962C129.807 3.66844 129.779 3.66286 129.757 3.66286C129.578 3.62933 129.349 3.67403 129.07 3.79695C129.025 3.7746 128.913 3.76343 128.734 3.76343C128.567 3.75225 128.321 3.74667 127.997 3.74667C127.952 3.74667 127.907 3.75225 127.863 3.76343C127.818 3.76343 127.768 3.7746 127.712 3.79695C127.656 3.74108 127.567 3.71314 127.444 3.71314L127.41 3.66286C127.298 3.66286 127.125 3.70755 126.891 3.79695C126.835 3.85282 126.807 3.95339 126.807 4.09866H126.723V4.31657H126.807V4.4339H126.723V4.65181L126.807 4.73562H126.723V5.94247L126.807 6.02628H126.723V6.328C126.745 6.328 126.773 6.33917 126.807 6.36152H126.723V7.23314C126.667 7.23314 126.639 7.26108 126.639 7.31695C126.639 7.40635 126.667 7.43428 126.723 7.40076C126.723 7.6913 126.751 7.86451 126.807 7.92038V9.24457L127.226 9.27809C127.203 9.31162 127.22 9.32838 127.276 9.32838C127.332 9.32838 127.349 9.34514 127.326 9.37867C127.561 9.40102 127.745 9.42336 127.88 9.44571C128.014 9.45689 128.114 9.46248 128.181 9.46248C128.237 9.44013 128.315 9.42895 128.416 9.42895C128.528 9.41778 128.662 9.40102 128.818 9.37867V9.27809H130.36V9.37867H131.383V9.27809H131.567V9.37867C131.701 9.41219 131.785 9.41219 131.819 9.37867V9.27809H132.338C132.293 9.36749 132.333 9.41219 132.456 9.41219C132.545 9.37867 132.562 9.33397 132.506 9.27809H132.673V9.37867C132.897 9.41219 133.126 9.41219 133.361 9.37867V9.27809H133.612V9.37867C133.646 9.40102 133.735 9.41219 133.88 9.41219C133.88 9.69155 133.88 9.90946 133.88 10.0659C133.88 10.2223 133.891 10.3341 133.914 10.4011H133.964V10.5352H133.914C133.959 10.714 133.891 10.9096 133.713 11.1219C133.646 11.1219 133.607 11.1331 133.595 11.1554C133.584 11.1778 133.59 11.2113 133.612 11.256C133.333 11.256 133.109 11.2616 132.942 11.2728C132.785 11.2728 132.685 11.2839 132.64 11.3063C132.595 11.2839 132.495 11.2728 132.338 11.2728C132.193 11.2616 131.992 11.256 131.735 11.256C131.69 11.256 131.634 11.2616 131.567 11.2728C131.511 11.2728 131.45 11.2839 131.383 11.3063C131.36 11.3063 131.332 11.3063 131.299 11.3063C131.265 11.2951 131.237 11.2783 131.215 11.256C131.103 11.256 130.98 11.2616 130.846 11.2728C130.712 11.2728 130.55 11.2839 130.36 11.3063C130.338 11.3063 130.31 11.3063 130.276 11.3063C130.243 11.2951 130.215 11.2783 130.193 11.256C130.193 11.189 130.137 11.2057 130.025 11.3063L129.975 11.256C129.952 11.256 129.941 11.2728 129.941 11.3063H128.868C128.846 11.3063 128.818 11.3063 128.785 11.3063C128.762 11.2951 128.729 11.2783 128.684 11.256C128.639 11.256 128.584 11.2616 128.516 11.2728C128.461 11.2728 128.388 11.2839 128.299 11.3063V11.256C128.075 11.2001 127.891 11.2169 127.745 11.3063V11.256C127.723 11.256 127.695 11.2728 127.662 11.3063C127.505 11.2839 127.365 11.2783 127.243 11.2895C127.12 11.3007 127.002 11.3175 126.891 11.3398V11.7253H126.84C126.84 11.9153 126.829 12.15 126.807 12.4293C126.796 12.7087 126.779 13.0439 126.756 13.435C126.734 13.8262 126.723 14.1726 126.723 14.4743C126.723 14.7648 126.723 15.0051 126.723 15.195H126.807C126.807 15.4856 126.807 15.737 126.807 15.9493C126.807 16.1505 126.818 16.3293 126.84 16.4857H126.891V16.6533H126.84C126.807 16.7763 126.807 16.8768 126.84 16.955H126.891C126.891 17.145 126.935 17.2177 127.025 17.173C127.125 17.1506 127.259 17.1506 127.427 17.173C127.595 17.1841 127.773 17.2121 127.963 17.2568C127.941 17.2344 127.941 17.2177 127.963 17.2065C127.986 17.1841 128.03 17.173 128.097 17.173V17.2568C128.377 17.2568 128.561 17.2288 128.651 17.173V17.2568C128.74 17.2344 128.857 17.2177 129.003 17.2065C129.148 17.1841 129.315 17.173 129.505 17.173C129.483 17.1953 129.489 17.2177 129.522 17.24C129.567 17.2623 129.617 17.2959 129.673 17.3406C129.695 17.2847 129.746 17.2512 129.824 17.24C129.902 17.2177 129.941 17.1953 129.941 17.173C130.098 17.173 130.215 17.1785 130.293 17.1897C130.371 17.1897 130.427 17.2009 130.461 17.2232C130.494 17.2344 130.511 17.2512 130.511 17.2735C130.511 17.2847 130.517 17.307 130.528 17.3406C130.573 17.3182 130.601 17.307 130.612 17.307C130.634 17.2959 130.634 17.2791 130.612 17.2568C130.723 17.2568 130.863 17.2512 131.031 17.24C131.21 17.2177 131.416 17.1953 131.651 17.173V17.2568C131.718 17.2568 131.841 17.2456 132.02 17.2232C132.199 17.1897 132.333 17.173 132.422 17.173C132.59 17.173 132.802 17.1841 133.059 17.2065C133.327 17.2177 133.646 17.2344 134.014 17.2568C134.07 17.2791 134.137 17.2847 134.216 17.2735C134.305 17.2512 134.394 17.2177 134.484 17.173C134.517 17.2288 134.657 17.2568 134.903 17.2568C134.88 17.2791 134.908 17.307 134.987 17.3406V18.9665Z"
          fill="#64748B"/>
    <g clip-path="url(#clip0_12_226)">
        <path d="M18.0714 8.7895V15.5362L1.20477 18.9095V12.1628L10.4814 2.04283H11.2846C12.1715 2.03964 13.0502 2.21198 13.8702 2.5499C14.6902 2.88783 15.4352 3.38466 16.0623 4.01178C16.6894 4.6389 17.1863 5.38391 17.5242 6.20389C17.8621 7.02388 18.0345 7.90262 18.0313 8.7895H18.0714Z"
              stroke="#64748B" stroke-width="2.00095" stroke-miterlimit="10" stroke-linejoin="bevel"/>
        <path d="M1.20477 14.6928C2.273 14.6286 2.62639 16.1064 3.77493 15.8815C4.92347 15.6566 4.65039 13.986 5.85515 13.7451C7.05992 13.5041 7.38922 15.1587 8.59398 14.9177C9.79874 14.6768 9.46944 13.0222 10.6662 12.7893C11.8629 12.5564 12.2002 14.1949 13.405 13.9619C14.6098 13.729 14.2885 12.0584 15.4933 11.8175C16.698 11.5765 17.0032 13.0704 18.0714 13.0062"
              stroke="#64748B" stroke-width="2.00095" stroke-miterlimit="10" stroke-linejoin="bevel"/>
        <path d="M11.1722 5.10294C11.5936 5.10294 11.9352 4.76132 11.9352 4.33992C11.9352 3.91852 11.5936 3.5769 11.1722 3.5769C10.7508 3.5769 10.4092 3.91852 10.4092 4.33992C10.4092 4.76132 10.7508 5.10294 11.1722 5.10294Z"
              fill="#64748B"/>
        <path d="M13.4693 5.87399C13.8907 5.87399 14.2323 5.53238 14.2323 5.11098C14.2323 4.68958 13.8907 4.34796 13.4693 4.34796C13.0479 4.34796 12.7062 4.68958 12.7062 5.11098C12.7062 5.53238 13.0479 5.87399 13.4693 5.87399Z"
              fill="#64748B"/>
        <path d="M15.0033 7.40805C15.4247 7.40805 15.7663 7.06644 15.7663 6.64503C15.7663 6.22363 15.4247 5.88202 15.0033 5.88202C14.5819 5.88202 14.2403 6.22363 14.2403 6.64503C14.2403 7.06644 14.5819 7.40805 15.0033 7.40805Z"
              fill="#64748B"/>
        <path d="M1.20477 12.0102L18.0714 8.17908" stroke="#64748B" stroke-width="2.00095" stroke-miterlimit="10"
              stroke-linejoin="bevel"/>
    </g>
    <defs>
        <clipPath id="clip0_12_226">
            <rect width="19.2762" height="19.2762" fill="white" transform="translate(0 0.838074)"/>
        </clipPath>
    </defs>
</svg>
