<svg width="20" height="21" viewBox="0 0 20 21" fill="none" xmlns="http://www.w3.org/2000/svg">
    <g clip-path="url(#clip0_12_228)">
        <path d="M18.0714 8.7895V15.5362L1.20477 18.9095V12.1628L10.4814 2.04283H11.2846C12.1715 2.03964 13.0502 2.21198 13.8702 2.5499C14.6902 2.88783 15.4352 3.38466 16.0623 4.01178C16.6894 4.6389 17.1863 5.38391 17.5242 6.20389C17.8621 7.02388 18.0345 7.90262 18.0313 8.7895H18.0714Z"
              stroke="#64748B" stroke-width="2.00095" stroke-miterlimit="10" stroke-linejoin="bevel"/>
        <path d="M1.20477 14.6928C2.273 14.6286 2.62639 16.1064 3.77493 15.8815C4.92347 15.6566 4.65039 13.986 5.85515 13.7451C7.05992 13.5041 7.38922 15.1587 8.59398 14.9177C9.79874 14.6768 9.46944 13.0222 10.6662 12.7893C11.8629 12.5564 12.2002 14.1949 13.405 13.9619C14.6098 13.729 14.2885 12.0584 15.4933 11.8175C16.698 11.5765 17.0032 13.0704 18.0714 13.0062"
              stroke="#64748B" stroke-width="2.00095" stroke-miterlimit="10" stroke-linejoin="bevel"/>
        <path d="M11.1722 5.10294C11.5936 5.10294 11.9352 4.76132 11.9352 4.33992C11.9352 3.91852 11.5936 3.5769 11.1722 3.5769C10.7508 3.5769 10.4092 3.91852 10.4092 4.33992C10.4092 4.76132 10.7508 5.10294 11.1722 5.10294Z"
              fill="#64748B"/>
        <path d="M13.4693 5.87399C13.8907 5.87399 14.2323 5.53238 14.2323 5.11098C14.2323 4.68958 13.8907 4.34796 13.4693 4.34796C13.0479 4.34796 12.7062 4.68958 12.7062 5.11098C12.7062 5.53238 13.0479 5.87399 13.4693 5.87399Z"
              fill="#64748B"/>
        <path d="M15.0033 7.40805C15.4247 7.40805 15.7663 7.06644 15.7663 6.64503C15.7663 6.22363 15.4247 5.88202 15.0033 5.88202C14.5819 5.88202 14.2403 6.22363 14.2403 6.64503C14.2403 7.06644 14.5819 7.40805 15.0033 7.40805Z"
              fill="#64748B"/>
        <path d="M1.20477 12.0102L18.0714 8.17908" stroke="#64748B" stroke-width="2.00095" stroke-miterlimit="10"
              stroke-linejoin="bevel"/>
    </g>
    <defs>
        <clipPath id="clip0_12_228">
            <rect width="19.2762" height="19.2762" fill="white" transform="translate(0 0.838074)"/>
        </clipPath>
    </defs>
</svg>
